<svg width="44" height="43" viewBox="0 0 44 43" fill="none" xmlns="http://www.w3.org/2000/svg">
<path d="M0.5 0.5H43.5V42.5H0.5V0.5Z" fill="#F7DF1E" stroke="black"/>
<mask id="path-2-inside-1_18_13" fill="white">
<path d="M10.2327 33.4236L13.5999 31.4322C14.2495 32.5577 14.8404 33.5101 16.2578 33.5101C17.6165 33.5101 18.4731 32.9907 18.4731 30.9704V17.2308H22.608V31.0275C22.608 35.2128 20.0976 37.1179 16.4351 37.1179C13.1273 37.1179 11.2072 35.4437 10.2326 33.4233"/>
</mask>
<path d="M10.2327 33.4236L13.5999 31.4322C14.2495 32.5577 14.8404 33.5101 16.2578 33.5101C17.6165 33.5101 18.4731 32.9907 18.4731 30.9704V17.2308H22.608V31.0275C22.608 35.2128 20.0976 37.1179 16.4351 37.1179C13.1273 37.1179 11.2072 35.4437 10.2326 33.4233" fill="black"/>
<path d="M13.5999 31.4322L14.466 30.9323L13.9608 30.0569L13.0908 30.5714L13.5999 31.4322ZM18.4731 17.2308V16.2308H17.4731V17.2308H18.4731ZM22.608 17.2308H23.608V16.2308H22.608V17.2308ZM10.7417 34.2843L14.1089 32.2929L13.0908 30.5714L9.72361 32.5629L10.7417 34.2843ZM12.7338 31.932C13.0468 32.4745 13.4258 33.1274 13.9588 33.6245C14.5414 34.1679 15.2843 34.5101 16.2578 34.5101V32.5101C15.8139 32.5101 15.5526 32.3761 15.323 32.1619C15.0437 31.9015 14.8025 31.5154 14.466 30.9323L12.7338 31.932ZM16.2578 34.5101C17.0329 34.5101 17.9164 34.3679 18.5806 33.7064C19.241 33.0488 19.4731 32.0892 19.4731 30.9704H17.4731C17.4731 31.8718 17.2769 32.1821 17.1693 32.2893C17.0656 32.3926 16.8415 32.5101 16.2578 32.5101V34.5101ZM19.4731 30.9704V17.2308H17.4731V30.9704H19.4731ZM18.4731 18.2308H22.608V16.2308H18.4731V18.2308ZM21.608 17.2308V31.0275H23.608V17.2308H21.608ZM21.608 31.0275C21.608 32.9159 21.0479 34.142 20.2176 34.9065C19.3731 35.6842 18.1041 36.1179 16.4351 36.1179V38.1179C18.4286 38.1179 20.2461 37.599 21.5724 36.3778C22.9129 35.1435 23.608 33.3244 23.608 31.0275H21.608ZM16.4351 36.1179C13.5473 36.1179 11.9574 34.6972 11.1333 32.9888L9.33193 33.8578C10.4571 36.1901 12.7073 38.1179 16.4351 38.1179V36.1179Z" fill="black" mask="url(#path-2-inside-1_18_13)"/>
<mask id="path-4-inside-2_18_13" fill="white">
<path d="M24.8539 32.9907L28.2206 31.0857C29.1069 32.5001 30.2588 33.5392 32.2967 33.5392C34.0099 33.5392 35.1025 32.702 35.1025 31.5475C35.1025 30.162 33.9802 29.6712 32.0899 28.8633L31.0564 28.43C28.0731 27.1891 26.0942 25.6305 26.0942 22.3399C26.0942 19.3091 28.457 16.9999 32.1491 16.9999C34.7778 16.9999 36.668 17.8948 38.0265 20.2328L34.8071 22.2532C34.0982 21.0121 33.3305 20.5215 32.1492 20.5215C30.9382 20.5215 30.1702 21.272 30.1702 22.2532C30.1702 23.4655 30.9382 23.9563 32.7101 24.7068L33.7438 25.1398C37.2585 26.6119 39.2375 28.1127 39.2375 31.4897C39.2375 35.1268 36.3135 37.1183 32.3854 37.1183C28.5458 37.1183 26.0647 35.3288 24.854 32.9907"/>
</mask>
<path d="M24.8539 32.9907L28.2206 31.0857C29.1069 32.5001 30.2588 33.5392 32.2967 33.5392C34.0099 33.5392 35.1025 32.702 35.1025 31.5475C35.1025 30.162 33.9802 29.6712 32.0899 28.8633L31.0564 28.43C28.0731 27.1891 26.0942 25.6305 26.0942 22.3399C26.0942 19.3091 28.457 16.9999 32.1491 16.9999C34.7778 16.9999 36.668 17.8948 38.0265 20.2328L34.8071 22.2532C34.0982 21.0121 33.3305 20.5215 32.1492 20.5215C30.9382 20.5215 30.1702 21.272 30.1702 22.2532C30.1702 23.4655 30.9382 23.9563 32.7101 24.7068L33.7438 25.1398C37.2585 26.6119 39.2375 28.1127 39.2375 31.4897C39.2375 35.1268 36.3135 37.1183 32.3854 37.1183C28.5458 37.1183 26.0647 35.3288 24.854 32.9907" fill="black"/>
<path d="M28.2206 31.0857L29.068 30.5547L28.5604 29.7444L27.7282 30.2153L28.2206 31.0857ZM32.0899 28.8633L32.4829 27.9437L32.4765 27.9411L32.0899 28.8633ZM31.0564 28.43L31.4431 27.5078L31.4405 27.5067L31.0564 28.43ZM38.0265 20.2328L38.5581 21.0798L39.3767 20.5661L38.8911 19.7304L38.0265 20.2328ZM34.8071 22.2532L33.9388 22.7492L34.4558 23.6543L35.3387 23.1002L34.8071 22.2532ZM32.7101 24.7068L32.3201 25.6277L32.3238 25.6292L32.7101 24.7068ZM33.7438 25.1398L34.1301 24.2174L34.1301 24.2174L33.7438 25.1398ZM25.3463 33.861L28.7131 31.956L27.7282 30.2153L24.3614 32.1204L25.3463 33.861ZM27.3733 31.6166C27.8579 32.3901 28.4573 33.1306 29.2713 33.6744C30.1004 34.2283 31.0939 34.5392 32.2967 34.5392V32.5392C31.4616 32.5392 30.8602 32.3306 30.3823 32.0113C29.8893 31.682 29.4697 31.1957 29.068 30.5547L27.3733 31.6166ZM32.2967 34.5392C33.305 34.5392 34.2289 34.2939 34.9294 33.7856C35.6501 33.2626 36.1025 32.4756 36.1025 31.5475H34.1025C34.1025 31.7739 34.0085 31.9828 33.7547 32.1669C33.4806 32.3659 33.0016 32.5392 32.2967 32.5392V34.5392ZM36.1025 31.5475C36.1025 31.0593 36.0018 30.6039 35.7805 30.1878C35.5621 29.7768 35.254 29.4567 34.914 29.1956C34.2747 28.7047 33.3851 28.3294 32.4829 27.9438L31.6968 29.7828C32.685 30.2052 33.3017 30.4792 33.696 30.782C33.8729 30.9178 33.9636 31.0306 34.0146 31.1266C34.0628 31.2173 34.1025 31.3429 34.1025 31.5475H36.1025ZM32.4765 27.9411L31.4431 27.5078L30.6698 29.3523L31.7032 29.7855L32.4765 27.9411ZM31.4405 27.5067C29.9945 26.9053 28.9164 26.2742 28.1971 25.4815C27.5101 24.7245 27.0942 23.7578 27.0942 22.3399H25.0942C25.0942 24.2125 25.6677 25.6704 26.716 26.8256C27.7321 27.9452 29.135 28.7139 30.6724 29.3533L31.4405 27.5067ZM27.0942 22.3399C27.0942 21.0964 27.5732 20.0335 28.4096 19.2734C29.2506 18.5092 30.5124 17.9999 32.1491 17.9999V15.9999C30.0937 15.9999 28.328 16.6452 27.0646 17.7933C25.7966 18.9455 25.0942 20.5526 25.0942 22.3399H27.0942ZM32.1491 17.9999C33.3518 17.9999 34.3082 18.2046 35.0949 18.6226C35.874 19.0367 36.5596 19.6987 37.1619 20.7352L38.8911 19.7304C38.1349 18.4288 37.1961 17.4744 36.0334 16.8565C34.8781 16.2426 33.5751 15.9999 32.1491 15.9999V17.9999ZM37.4949 19.3858L34.2755 21.4062L35.3387 23.1002L38.5581 21.0798L37.4949 19.3858ZM35.6754 21.7572C35.2758 21.0576 34.8092 20.4785 34.1995 20.083C33.5749 19.6778 32.8875 19.5215 32.1492 19.5215V21.5215C32.5922 21.5215 32.8793 21.6105 33.1111 21.7609C33.3578 21.921 33.6295 22.2077 33.9388 22.7492L35.6754 21.7572ZM32.1492 19.5215C31.3366 19.5215 30.5904 19.7757 30.0351 20.2774C29.4749 20.7836 29.1702 21.4893 29.1702 22.2532H31.1702C31.1702 22.0358 31.2495 21.8757 31.376 21.7614C31.5075 21.6425 31.7507 21.5215 32.1492 21.5215V19.5215ZM29.1702 22.2532C29.1702 23.1301 29.4734 23.8328 30.1108 24.4001C30.6647 24.8932 31.4498 25.259 32.3201 25.6277L33.1001 23.786C32.1984 23.4041 31.7136 23.1493 31.4406 22.9062C31.251 22.7375 31.1702 22.5886 31.1702 22.2532H29.1702ZM32.3238 25.6292L33.3574 26.0621L34.1301 24.2174L33.0964 23.7845L32.3238 25.6292ZM33.3574 26.0621C35.0914 26.7884 36.3009 27.4668 37.0843 28.2899C37.8219 29.0648 38.2375 30.0281 38.2375 31.4897H40.2375C40.2375 29.5744 39.6636 28.0988 38.533 26.911C37.4482 25.7713 35.9109 24.9633 34.1301 24.2174L33.3574 26.0621ZM38.2375 31.4897C38.2375 33.0096 37.6412 34.122 36.6697 34.8792C35.6696 35.6587 34.1935 36.1183 32.3854 36.1183V38.1183C34.5054 38.1183 36.4553 37.5821 37.8992 36.4566C39.3718 35.3088 40.2375 33.6069 40.2375 31.4897H38.2375ZM32.3854 36.1183C28.8994 36.1183 26.7718 34.5197 25.742 32.5308L23.966 33.4505C25.3576 36.1379 28.1922 38.1183 32.3854 38.1183V36.1183Z" fill="black" mask="url(#path-4-inside-2_18_13)"/>
</svg>
