<svg width="125" height="66" viewBox="0 0 125 66" fill="none" xmlns="http://www.w3.org/2000/svg">
<path d="M1.17651 59.0745H5.19091V43.1458L11.4894 56.9968C12.1815 58.659 13.2197 59.2823 15.2269 59.2823C17.2341 59.2823 18.1339 58.659 18.8952 56.9968L25.1245 43.1458V59.0745H29.1389V43.1458C29.1389 41.6222 28.5159 40.8604 27.2009 40.4449C24.1555 39.5446 22.0791 40.3064 21.1793 42.384L15.0885 56.0965L9.13609 42.384C8.23631 40.3064 6.1599 39.5446 3.1145 40.4449C1.79944 40.8604 1.17651 41.553 1.17651 43.1458V59.0745Z" fill="#00678F"/>
<path d="M32.4612 46.1238H36.4756V54.8499C36.4756 55.3347 36.614 56.4428 38.8288 56.5121C40.0055 56.5121 47.5498 56.5121 47.619 56.5121V46.0546H51.6334C51.6334 46.0546 51.6334 60.3211 51.6334 60.3903C51.6334 63.9223 47.2729 64.6842 45.2657 64.6842H32.5996V61.9832H45.3349C47.8958 61.7062 47.619 60.3903 47.619 59.9748V58.936H39.0365C35.0221 58.936 32.4612 57.1354 32.4612 55.127C32.4612 54.9192 32.5996 46.1931 32.4612 46.1238Z" fill="#00678F"/>
<path d="M119.255 35.9433C116.764 35.8741 114.895 36.1511 113.234 36.7744C112.749 36.9822 112.057 36.9822 111.988 37.5362C112.265 37.8132 112.265 38.1595 112.472 38.5058C112.818 39.1291 113.51 39.9601 114.064 40.3756C114.687 40.8604 115.379 41.3452 116.071 41.83C117.248 42.5918 118.632 43.0073 119.809 43.7691C120.501 44.1847 121.193 44.7387 121.816 45.2235C122.162 45.5005 122.37 45.8468 122.785 46.0546V45.9853C122.577 45.7083 122.508 45.2928 122.301 45.0157C122.024 44.7387 121.678 44.4617 121.401 44.1154C120.501 42.9381 119.394 41.83 118.217 40.9989C117.248 40.3064 115.033 39.4061 114.687 38.2287C114.687 38.2287 114.687 38.2287 114.618 38.1595C115.31 38.0902 116.071 37.8825 116.764 37.6747C117.802 37.3977 118.771 37.4669 119.878 37.1899C120.363 37.0514 120.847 36.9129 121.332 36.7744C121.332 36.7051 121.332 36.5666 121.332 36.4974C120.778 35.9433 120.363 35.1815 119.809 34.6967C118.217 33.3116 116.487 31.9958 114.687 30.8877C113.718 30.2644 112.472 29.8489 111.503 29.3641C111.157 29.1563 110.534 29.0871 110.327 28.8101C109.773 28.1175 109.427 27.2172 109.081 26.4554C108.181 24.724 107.35 22.8541 106.52 21.0535C105.966 19.8762 105.62 18.6296 104.928 17.5215C101.744 12.2581 98.2834 9.0724 92.954 5.95593C91.7774 5.33263 90.4623 5.05561 89.0088 4.70934C88.2475 4.70934 87.4861 4.64008 86.7248 4.57083C86.2403 4.36306 85.7558 3.73977 85.2713 3.46275C83.5409 2.35467 78.9728 -0.0692585 77.6577 3.11647C76.8272 5.12487 78.9036 7.13326 79.5957 8.10283C80.1494 8.79538 80.7724 9.62644 81.1877 10.3882C81.3953 10.9423 81.4645 11.4963 81.6721 12.0504C82.1566 13.4355 82.6411 14.8898 83.2641 16.2057C83.6101 16.829 83.9562 17.5215 84.4407 18.1448C84.7176 18.4911 85.1328 18.6296 85.202 19.1836C84.7868 19.8069 84.7176 20.7072 84.5099 21.469C83.4025 24.9318 83.8178 29.2949 85.4097 31.8573C85.8942 32.6191 87.0708 34.3505 88.6627 33.6579C90.047 33.1039 89.7702 31.3725 90.1162 29.7796C90.1854 29.4334 90.1162 29.1563 90.3239 28.9486V29.0178C90.7391 29.8489 91.1544 30.7492 91.5697 31.5803C92.5387 33.1039 94.1998 34.6967 95.5841 35.7356C96.3455 36.2896 96.8992 37.2592 97.8682 37.6055V37.5362C97.8682 37.5362 97.8682 37.5362 97.7989 37.5362C97.5913 37.2592 97.3145 37.1207 97.1068 36.9129C96.5531 36.3589 95.9302 35.6663 95.5149 35.043C94.1998 33.3116 93.0924 31.3725 92.0542 29.4334C91.5697 28.4638 91.1544 27.425 90.7391 26.4554C90.5315 26.1091 90.5315 25.5551 90.2546 25.3473C89.7701 26.0399 89.078 26.5939 88.8012 27.425C88.2475 28.7408 88.1782 30.4029 87.9706 32.0651C87.8322 32.0651 87.9014 32.0651 87.8322 32.1343C86.8632 31.8573 86.5171 30.8877 86.1018 29.9874C85.202 27.7712 84.9944 24.2392 85.825 21.7461C86.0326 21.1228 87.0016 19.0451 86.5863 18.4218C86.3787 17.8678 85.7558 17.5215 85.4097 17.0367C84.9944 16.4827 84.5791 15.7209 84.3023 15.0283C83.5409 13.297 83.1948 11.3578 82.3643 9.62644C82.0182 8.79538 81.3261 7.96432 80.8416 7.27177C80.2879 6.44071 79.5957 5.81742 79.1112 4.84785C78.9728 4.50157 78.7652 3.94753 78.9728 3.60126C79.042 3.32424 79.1805 3.25498 79.3881 3.18573C79.8034 2.83945 80.9108 3.25498 81.3261 3.46275C82.5027 3.94753 83.4025 4.36306 84.3715 4.98636C84.7868 5.26338 85.2713 5.88667 85.825 6.02518C86.0326 6.02518 86.2403 6.02518 86.4479 6.02518C87.4169 6.23294 88.5243 6.09443 89.4933 6.37145C91.1544 6.92549 92.6079 7.6873 93.923 8.51836C97.9374 11.0808 101.329 14.7513 103.544 19.1144C103.89 19.8069 104.097 20.4995 104.374 21.192C104.997 22.7156 105.828 24.2392 106.451 25.7628C107.074 27.2172 107.697 28.6716 108.666 29.9181C109.15 30.5414 110.95 30.8877 111.849 31.234C112.472 31.511 113.441 31.788 113.995 32.0651C115.033 32.6883 116.071 33.4502 117.11 34.1427C117.594 34.5582 119.186 35.32 119.255 35.9433Z" fill="#00678F"/>
<path d="M87.7631 9.14166C87.2094 9.14166 86.8633 9.21092 86.5172 9.28017C86.5172 9.28017 86.5172 9.28017 86.5172 9.34943C86.5172 9.34943 86.5172 9.34943 86.5864 9.34943C86.8633 9.83421 87.2786 10.1805 87.5554 10.596C87.8323 11.0808 88.0399 11.5656 88.2476 12.0504L88.3168 11.9811C88.7321 11.7041 88.9397 11.1501 88.9397 10.4575C88.7321 10.2497 88.7321 10.042 88.5936 9.83421C88.386 9.48794 87.9707 9.34943 87.7631 9.14166Z" fill="#00678F"/>
<path d="M54.748 59.0745H66.376C67.7602 59.0745 69.0061 58.7975 70.1135 58.3127C71.8438 57.4816 72.6744 56.4428 72.6744 54.9885V52.0105C72.6744 50.8332 71.7054 49.7943 69.8366 49.0325C68.8676 48.6863 67.6218 48.4785 66.376 48.4785H61.531C59.8699 48.4785 59.1085 47.9937 58.9009 46.8856C58.9009 46.7471 58.9009 46.6086 58.9009 46.5393V44.7387C58.9009 44.6695 58.9009 44.5309 58.9009 44.3924C59.1085 43.5614 59.5238 43.3536 60.9773 43.2151C61.1157 43.2151 61.2541 43.2151 61.3234 43.2151H72.8128V40.5142H61.531C59.8699 40.5142 59.0393 40.5834 58.2779 40.8604C55.9247 41.6222 54.8173 42.7996 54.8173 44.8772V47.0934C54.8173 48.894 56.8245 50.4869 60.2851 50.8332C60.6312 50.8332 61.0465 50.8332 61.4618 50.8332H65.6146C65.753 50.8332 65.8915 50.8332 66.0299 50.8332C67.2757 50.9717 67.8294 51.1794 68.2447 51.6642C68.5216 51.9412 68.5216 52.149 68.5216 52.426V54.7807C68.5216 55.0577 68.3139 55.404 67.9679 55.7503C67.6218 56.0965 66.9989 56.3043 66.2375 56.3043C66.0991 56.3043 65.9607 56.3043 65.8222 56.3043H54.748V59.0745Z" fill="#E38D1A"/>
<path d="M97.799 54.3651C97.799 57.1353 99.8754 58.6589 104.028 58.936C104.443 58.936 104.79 59.0052 105.205 59.0052H115.725V56.3043H105.136C102.782 56.3043 101.883 55.7502 101.883 54.2959V40.4449H97.8682L97.799 54.3651Z" fill="#E38D1A"/>
<path d="M75.2354 54.5037V44.9465C75.2354 42.5226 76.9657 40.9989 80.3572 40.5834C80.7032 40.5834 81.1185 40.5142 81.4646 40.5142H89.1473C89.5626 40.5142 89.9087 40.5142 90.3239 40.5834C93.7154 41.0682 95.3766 42.5226 95.3766 44.9465V54.5037C95.3766 56.5121 94.6844 57.5509 93.0233 58.2434L96.9685 61.8447H92.3311L89.1473 58.936L85.8943 59.1438H81.603C80.9109 59.1438 80.0803 59.0745 79.2498 58.8667C76.4812 58.1049 75.2354 56.7198 75.2354 54.5037ZM79.5958 54.2959C79.5958 54.4344 79.665 54.5729 79.665 54.7114C79.8727 55.8195 80.9109 56.4428 82.5028 56.4428H86.1711L82.8489 53.3956H87.4862L90.3932 56.0273C90.9469 55.7503 91.2929 55.2655 91.4314 54.7114C91.4314 54.5729 91.4314 54.4344 91.4314 54.2959V45.1542C91.4314 45.0157 91.4314 44.8772 91.4314 44.808C91.2237 43.7691 90.1855 43.1458 88.5936 43.1458H82.5028C80.7032 43.1458 79.5266 43.9077 79.5266 45.1542L79.5958 54.2959Z" fill="#E38D1A"/>
<path d="M117.525 59.0745H118.079V56.7891H118.84V56.3043H116.694V56.7891H117.525V59.0745ZM122.024 59.0745H122.578V56.3736H121.747L121.055 58.2435L120.293 56.3736H119.463V59.0745H120.017V56.9969L120.778 59.0745H121.193L121.955 56.9969L122.024 59.0745Z" fill="#E38D1A"/>
</svg>
