<svg width="55" height="62" viewBox="0 0 55 62" fill="none" xmlns="http://www.w3.org/2000/svg">
<path d="M54.8171 25.9154C53.8132 32.2993 51.8598 34.1653 48.4005 38.454C44.9411 42.088 39.965 48.1554 32.9154 47.8171C26.5314 46.8132 24.6654 44.8598 20.3767 41.4005C16.7427 37.9411 10.6753 32.965 11.0136 25.9154C12.0175 19.5314 13.9709 17.6654 17.4302 13.3767C20.8896 9.74273 25.8658 3.67527 32.9154 4.01357C39.2993 5.01753 41.1654 6.97091 45.454 10.4302C49.088 13.8896 55.1554 18.8657 54.8171 25.9154Z" fill="#3765AF"/>
<path d="M32.9263 38.6723C32.588 38.6723 32.2497 38.585 31.9551 38.4104L28.8777 36.588C28.4194 36.3261 28.6376 36.2388 28.7904 36.1842C29.4015 35.9659 29.5325 35.9223 30.1872 35.5513C30.2527 35.5076 30.3509 35.5294 30.4164 35.5731L32.7844 36.9808C32.8717 37.0245 32.9918 37.0245 33.0682 36.9808L42.2894 31.6554C42.3767 31.6118 42.4313 31.5026 42.4313 31.4044V20.7645C42.4313 20.6554 42.3767 20.5681 42.2894 20.5136L33.0682 15.1991C32.9809 15.1445 32.8717 15.1445 32.7844 15.1991L23.5741 20.5136C23.4868 20.5681 23.4323 20.6663 23.4323 20.7645V31.4044C23.4323 31.5026 23.4868 31.6009 23.5741 31.6554L26.095 33.1177C27.47 33.8052 28.2993 32.9977 28.2993 32.1901V21.6812C28.2993 21.5284 28.4194 21.4193 28.5721 21.4193H29.7398C29.8817 21.4193 30.0017 21.5394 30.0017 21.6812V32.1792C30.0017 34.0126 29.0087 35.0602 27.2735 35.0602C26.7388 35.0602 26.3241 35.0602 25.1456 34.4818L22.7229 33.085C22.1227 32.7358 21.7517 32.0919 21.7517 31.4044V20.7645C21.7517 20.077 22.1227 19.4332 22.7229 19.084L31.9442 13.7586C32.5225 13.4312 33.3083 13.4312 33.8866 13.7586L43.1079 19.084C43.7081 19.4332 44.0791 20.077 44.0791 20.7645V31.4044C44.0791 32.0919 43.7081 32.7358 43.1079 33.085L33.8866 38.4104C33.6029 38.5741 33.2646 38.6723 32.9263 38.6723Z" fill="white"/>
<path d="M35.7745 31.3389C31.7368 31.3389 30.8965 29.4838 30.8965 27.9342C30.8965 27.7814 31.0165 27.6723 31.1584 27.6723H32.3479C32.4788 27.6723 32.588 27.7705 32.6098 27.9014C32.7844 29.1127 33.33 29.7238 35.7635 29.7238C37.706 29.7238 38.5354 29.2873 38.5354 28.2506C38.5354 27.6613 38.3062 27.2139 35.2834 26.9193C32.7626 26.6683 31.202 26.1117 31.202 24.0929C31.202 22.2377 32.7735 21.1246 35.4034 21.1246C38.3608 21.1246 39.8231 22.1504 40.0086 24.3439C40.0195 24.4203 39.9868 24.4967 39.9431 24.5512C39.8885 24.6058 39.8231 24.6385 39.7467 24.6385H38.5463C38.4262 24.6385 38.3171 24.5512 38.2844 24.4312C38.0007 23.1544 37.3022 22.7506 35.4034 22.7506C33.2864 22.7506 33.0354 23.4927 33.0354 24.0383C33.0354 24.704 33.33 24.9004 36.1891 25.2824C39.0264 25.6534 40.3687 26.1881 40.3687 28.1742C40.3687 30.1822 38.6882 31.3389 35.7745 31.3389Z" fill="white"/>
<path d="M19.5137 52.9135V59.459H18.3183L15.4707 55.3393H15.4227V59.459H14.0389V52.9135H15.2534L18.0786 57.03H18.1362V52.9135H19.5137ZM26.6719 56.1863C26.6719 56.9 26.5366 57.5073 26.266 58.008C25.9976 58.5087 25.6311 58.8912 25.1666 59.1554C24.7043 59.4174 24.1844 59.5485 23.607 59.5485C23.0253 59.5485 22.5033 59.4164 22.0409 59.1522C21.5785 58.888 21.2131 58.5055 20.9447 58.0048C20.6762 57.5041 20.542 56.8979 20.542 56.1863C20.542 55.4725 20.6762 54.8652 20.9447 54.3645C21.2131 53.8638 21.5785 53.4824 22.0409 53.2203C22.5033 52.9561 23.0253 52.824 23.607 52.824C24.1844 52.824 24.7043 52.9561 25.1666 53.2203C25.6311 53.4824 25.9976 53.8638 26.266 54.3645C26.5366 54.8652 26.6719 55.4725 26.6719 56.1863ZM25.2689 56.1863C25.2689 55.7239 25.1996 55.334 25.0611 55.0165C24.9248 54.699 24.732 54.4583 24.4827 54.2942C24.2334 54.1301 23.9415 54.0481 23.607 54.0481C23.2724 54.0481 22.9805 54.1301 22.7312 54.2942C22.482 54.4583 22.2881 54.699 22.1496 55.0165C22.0132 55.334 21.945 55.7239 21.945 56.1863C21.945 56.6486 22.0132 57.0385 22.1496 57.356C22.2881 57.6735 22.482 57.9142 22.7312 58.0783C22.9805 58.2424 23.2724 58.3244 23.607 58.3244C23.9415 58.3244 24.2334 58.2424 24.4827 58.0783C24.732 57.9142 24.9248 57.6735 25.0611 57.356C25.1996 57.0385 25.2689 56.6486 25.2689 56.1863ZM30.0174 59.459H27.6971V52.9135H30.0366C30.6949 52.9135 31.2617 53.0446 31.7368 53.3066C32.212 53.5666 32.5774 53.9405 32.8331 54.4284C33.0909 54.9164 33.2198 55.5002 33.2198 56.1799C33.2198 56.8617 33.0909 57.4476 32.8331 57.9377C32.5774 58.4277 32.2099 58.8038 31.7304 59.0659C31.2532 59.3279 30.6822 59.459 30.0174 59.459ZM29.0809 58.2733H29.9599C30.3689 58.2733 30.713 58.2008 30.9922 58.0559C31.2734 57.9089 31.4844 57.682 31.625 57.3752C31.7677 57.0662 31.8391 56.6678 31.8391 56.1799C31.8391 55.6962 31.7677 55.301 31.625 54.9941C31.4844 54.6873 31.2745 54.4615 30.9954 54.3166C30.7162 54.1717 30.3721 54.0993 29.963 54.0993H29.0809V58.2733ZM34.2449 59.459V52.9135H38.6554V54.0545H35.6288V55.6142H38.4285V56.7551H35.6288V58.318H38.6682V59.459H34.2449ZM44.4594 52.9135H45.8273V57.4775C45.8273 57.8993 45.7325 58.2658 45.5429 58.5769C45.3554 58.888 45.0943 59.1277 44.7598 59.296C44.4253 59.4643 44.0365 59.5485 43.5933 59.5485C43.1991 59.5485 42.8412 59.4792 42.5194 59.3407C42.1998 59.2001 41.9463 58.987 41.7588 58.7015C41.5713 58.4139 41.4786 58.0527 41.4807 57.6181H42.8582C42.8625 57.7907 42.8976 57.9387 42.9637 58.0623C43.0318 58.1838 43.1245 58.2775 43.2417 58.3436C43.361 58.4075 43.5017 58.4395 43.6636 58.4395C43.8341 58.4395 43.9779 58.4032 44.0951 58.3308C44.2144 58.2562 44.3049 58.1475 44.3667 58.0048C44.4285 57.862 44.4594 57.6863 44.4594 57.4775V52.9135ZM50.5223 54.796C50.4967 54.5382 50.387 54.3379 50.1931 54.1951C49.9992 54.0524 49.736 53.981 49.4037 53.981C49.1778 53.981 48.9871 54.013 48.8316 54.0769C48.676 54.1387 48.5567 54.225 48.4736 54.3358C48.3926 54.4466 48.3522 54.5723 48.3522 54.7129C48.3479 54.8301 48.3724 54.9324 48.4257 55.0197C48.4811 55.1071 48.5567 55.1827 48.6526 55.2466C48.7485 55.3084 48.8593 55.3627 48.985 55.4096C49.1107 55.4544 49.2449 55.4927 49.3877 55.5247L49.9757 55.6653C50.2613 55.7292 50.5233 55.8145 50.762 55.921C51.0006 56.0275 51.2073 56.1586 51.382 56.3141C51.5567 56.4696 51.692 56.6529 51.7879 56.8638C51.8859 57.0748 51.936 57.3166 51.9381 57.5893C51.936 57.9899 51.8337 58.3372 51.6313 58.6312C51.431 58.9231 51.1412 59.15 50.762 59.312C50.3848 59.4718 49.9299 59.5517 49.3973 59.5517C48.8689 59.5517 48.4086 59.4707 48.0166 59.3088C47.6267 59.1468 47.322 58.9071 47.1025 58.5897C46.8852 58.2701 46.7712 57.8748 46.7605 57.4039H48.0997C48.1146 57.6234 48.1774 57.8066 48.2882 57.9537C48.4012 58.0985 48.5514 58.2083 48.7389 58.2828C48.9285 58.3553 49.1426 58.3915 49.3813 58.3915C49.6157 58.3915 49.8191 58.3574 49.9917 58.2892C50.1664 58.2211 50.3017 58.1262 50.3976 58.0048C50.4935 57.8833 50.5414 57.7438 50.5414 57.5861C50.5414 57.4391 50.4978 57.3155 50.4104 57.2154C50.3252 57.1152 50.1995 57.03 50.0333 56.9597C49.8692 56.8894 49.6679 56.8255 49.4292 56.7679L48.7165 56.589C48.1647 56.4547 47.7289 56.2449 47.4093 55.9593C47.0897 55.6738 46.931 55.2892 46.9331 54.8056C46.931 54.4093 47.0365 54.063 47.2495 53.7669C47.4647 53.4707 47.7598 53.2395 48.1348 53.0733C48.5098 52.9071 48.936 52.824 49.4132 52.824C49.899 52.824 50.323 52.9071 50.6853 53.0733C51.0496 53.2395 51.333 53.4707 51.5354 53.7669C51.7378 54.063 51.8422 54.4061 51.8486 54.796H50.5223Z" fill="#3765AF"/>
</svg>
