<svg width="46" height="46" viewBox="0 0 46 46" fill="none" xmlns="http://www.w3.org/2000/svg">
<g clip-path="url(#clip0_18_12)">
<path d="M38.3546 16.3038C37.9086 16.1515 37.4463 16.0073 36.9704 15.871C37.0486 15.5542 37.1204 15.2416 37.1843 14.9342C38.2321 9.88736 37.547 5.82159 35.2076 4.48296C32.9643 3.1994 29.2957 4.53772 25.5906 7.73717C25.2343 8.04483 24.877 8.37056 24.5199 8.71194C24.2819 8.48608 24.0444 8.26781 23.8074 8.05903C19.9243 4.63797 16.0321 3.19628 13.695 4.53878C11.4539 5.82607 10.7903 9.64828 11.7335 14.4312C11.8245 14.8932 11.931 15.365 12.0514 15.8446C11.5005 15.9998 10.9687 16.1652 10.4599 16.3412C5.90743 17.9161 3 20.3843 3 22.9445C3 25.5888 6.12112 28.2409 10.8629 29.8491C11.2371 29.976 11.6254 30.096 12.0255 30.2099C11.8956 30.7287 11.7827 31.2371 11.6878 31.7329C10.7885 36.4329 11.4908 40.1648 13.7259 41.4439C16.0346 42.765 19.9092 41.4071 23.682 38.1347C23.9802 37.8761 24.2795 37.6018 24.5793 37.3142C24.9679 37.6855 25.3559 38.0369 25.7418 38.3665C29.3962 41.4869 33.0056 42.747 35.2386 41.4642C37.545 40.1394 38.2945 36.1305 37.3214 31.2529C37.2471 30.8804 37.1606 30.4998 37.0635 30.1125C37.3356 30.0327 37.6027 29.9503 37.8632 29.8646C42.7927 28.244 46 25.6241 46 22.9445C46 20.3751 42.9988 17.8902 38.3546 16.3038ZM37.2855 28.1345C37.0503 28.2117 36.8091 28.2864 36.5632 28.3587C36.019 26.6493 35.2846 24.8315 34.3858 22.9534C35.2435 21.1201 35.9495 19.3256 36.4785 17.6272C36.9184 17.7535 37.3453 17.8867 37.7567 18.0273C41.7358 19.3865 44.1631 21.3961 44.1631 22.9445C44.1631 24.5939 41.5417 26.7351 37.2855 28.1345ZM35.5194 31.6069C35.9497 33.7637 36.0111 35.7137 35.7261 37.2381C35.47 38.6078 34.955 39.5211 34.3182 39.8868C32.963 40.6651 30.0651 39.6534 26.9398 36.9848C26.5815 36.6789 26.2206 36.3523 25.8586 36.0066C27.0702 34.6917 28.2811 33.1632 29.463 31.4655C31.5417 31.2825 33.5056 30.9833 35.2866 30.5748C35.3743 30.9259 35.4523 31.2702 35.5194 31.6069ZM17.6597 39.7523C16.3357 40.2163 15.2812 40.2296 14.6438 39.8649C13.2874 39.0886 12.7236 36.0923 13.4927 32.0729C13.5808 31.6126 13.6857 31.1397 13.8065 30.6564C15.568 31.0429 17.5175 31.321 19.6012 31.4886C20.7911 33.1498 22.037 34.6767 23.2925 36.0136C23.0182 36.2764 22.745 36.5266 22.4732 36.7623C20.8049 38.2093 19.1331 39.236 17.6597 39.7523ZM11.457 28.1244C9.36027 27.4133 7.62872 26.4891 6.44182 25.4806C5.37532 24.5743 4.83687 23.6746 4.83687 22.9445C4.83687 21.3909 7.17125 19.4093 11.0646 18.0623C11.537 17.8989 12.0315 17.7449 12.5447 17.6002C13.0828 19.337 13.7886 21.1527 14.6404 22.9889C13.7776 24.8523 13.0617 26.697 12.5184 28.4541C12.1525 28.3498 11.7981 28.24 11.457 28.1244ZM13.5362 14.0812C12.7281 9.98328 13.2648 6.89197 14.6153 6.11626C16.0539 5.28989 19.2349 6.46812 22.5877 9.42204C22.802 9.61084 23.0171 9.80845 23.2329 10.0129C21.9835 11.344 20.749 12.8594 19.5698 14.5108C17.5475 14.6968 15.6116 14.9956 13.8318 15.3957C13.7199 14.949 13.6208 14.5102 13.5362 14.0812ZM32.0844 18.6257C31.659 17.8965 31.2222 17.1845 30.7768 16.4919C32.1488 16.664 33.4633 16.8925 34.6977 17.172C34.3271 18.3506 33.8652 19.5828 33.3215 20.846C32.9314 20.1112 32.5189 19.3704 32.0844 18.6257ZM24.5205 11.3155C25.3678 12.2263 26.2163 13.2433 27.0509 14.3466C26.2099 14.3072 25.3585 14.2867 24.5 14.2867C23.6496 14.2867 22.8045 14.3067 21.9687 14.3455C22.8041 13.2524 23.66 12.2368 24.5205 11.3155ZM16.9081 18.6383C16.4831 19.3696 16.0782 20.1064 15.6943 20.8446C15.1594 19.5858 14.7017 18.348 14.3279 17.1527C15.5548 16.8803 16.863 16.6576 18.2263 16.4887C17.7747 17.1877 17.3343 17.9051 16.9081 18.6383ZM18.2656 29.5304C16.8571 29.3744 15.5291 29.1632 14.3026 28.8983C14.6824 27.6817 15.1501 26.4174 15.6964 25.1315C16.0813 25.8692 16.4878 26.6063 16.9154 27.3392C17.351 28.0858 17.8023 28.8172 18.2656 29.5304ZM24.5713 34.7021C23.7007 33.77 22.8323 32.7389 21.9841 31.6299C22.8075 31.6619 23.6469 31.6783 24.5 31.6783C25.3765 31.6783 26.2429 31.6587 27.0957 31.6211C26.2583 32.7501 25.4129 33.7827 24.5713 34.7021ZM33.339 25.0659C33.9137 26.3658 34.3982 27.6234 34.7829 28.8193C33.5362 29.1015 32.1901 29.3288 30.7718 29.4977C31.2182 28.7958 31.6588 28.0716 32.0918 27.3266C32.5298 26.5729 32.9457 25.8181 33.339 25.0659ZM30.5006 26.416C29.8284 27.5725 29.1384 28.6764 28.4378 29.7185C27.1618 29.809 25.8436 29.8556 24.5 29.8556C23.1619 29.8556 21.8602 29.8144 20.6068 29.7337C19.878 28.6779 19.1729 27.5707 18.505 26.426C17.8389 25.2844 17.226 24.1331 16.6705 22.9883C17.2258 21.8408 17.8373 20.6883 18.4996 19.5487C19.1637 18.4061 19.8624 17.3045 20.5845 16.2554C21.8633 16.1594 23.1746 16.1094 24.4999 16.1094C25.8312 16.1094 27.1443 16.1598 28.4227 16.2566C29.1338 17.298 29.8279 18.3963 30.4946 19.539C31.1688 20.6946 31.7882 21.8395 32.3483 22.9624C31.7898 24.1045 31.1719 25.261 30.5006 26.416ZM34.29 6.06203C35.7299 6.88597 36.2899 10.2089 35.3852 14.5663C35.3275 14.8444 35.2625 15.1276 35.1919 15.4146C33.408 15.0061 31.4707 14.7022 29.4425 14.5134C28.261 12.8439 27.0366 11.3261 25.8076 10.0121C26.138 9.69666 26.468 9.39591 26.7966 9.1121C29.9711 6.37083 32.9382 5.28852 34.29 6.06203ZM24.5 19.1346C26.6206 19.1346 28.3398 20.8403 28.3398 22.9445C28.3398 25.0487 26.6206 26.7545 24.5 26.7545C22.3794 26.7545 20.6602 25.0487 20.6602 22.9445C20.6602 20.8403 22.3794 19.1346 24.5 19.1346Z" fill="#00D8FF"/>
</g>
<defs>
<clipPath id="clip0_18_12">
<rect width="43" height="38" fill="white" transform="translate(3 3.99988)"/>
</clipPath>
</defs>
</svg>
