<svg width="59" height="44" viewBox="0 0 59 44" fill="none" xmlns="http://www.w3.org/2000/svg">
<g clip-path="url(#clip0_18_6)">
<path d="M50.768 25.3259C48.7153 25.3366 46.9314 25.8281 45.4375 26.5548C44.8895 25.4755 44.3414 24.5137 44.2447 23.8085C44.1372 22.9856 44.0082 22.4834 44.1372 21.5003C44.2661 20.5171 44.8465 19.1173 44.8357 19.0104C44.825 18.9035 44.7068 18.4013 43.5246 18.3906C42.3425 18.3799 41.3215 18.615 41.2033 18.9249C41.0851 19.2348 40.8594 19.9401 40.709 20.6667C40.5048 21.7354 38.3447 25.5503 37.1088 27.5486C36.7111 26.7685 36.3672 26.0846 36.292 25.5396C36.1845 24.7168 36.0556 24.2145 36.1845 23.2314C36.3135 22.2483 36.8938 20.8484 36.8831 20.7416C36.8723 20.6347 36.7541 20.1324 35.572 20.1218C34.3898 20.1111 33.3689 20.3462 33.2507 20.6561C33.1325 20.966 33.0035 21.6926 32.7563 22.3979C32.5091 23.1032 29.6397 29.4721 28.8875 31.1178C28.5006 31.962 28.1674 32.6352 27.931 33.0947C27.931 33.0947 27.9202 33.1267 27.888 33.1802C27.6838 33.5756 27.5656 33.7893 27.5656 33.7893C27.5656 33.7893 27.5656 33.7893 27.5656 33.8C27.4044 34.0885 27.2324 34.3556 27.1465 34.3556C27.082 34.3556 26.9638 33.5862 27.168 32.539C27.5978 30.327 28.6188 26.8861 28.608 26.7685C28.608 26.7044 28.8015 26.106 27.9417 25.7961C27.1035 25.4862 26.8026 25.9991 26.7273 25.9991C26.6521 25.9991 26.5984 26.1808 26.5984 26.1808C26.5984 26.1808 27.5334 22.3124 24.8144 22.3124C23.1164 22.3124 20.7736 24.1611 19.613 25.8281C18.8822 26.2235 17.3239 27.0677 15.6581 27.976C15.0241 28.3287 14.3685 28.6813 13.7559 29.0126C13.713 28.9698 13.67 28.9164 13.627 28.8737C10.3385 25.3793 4.25576 22.9108 4.51369 18.2196C4.61041 16.5099 5.20148 12.0217 16.1955 6.57179C25.2443 2.13706 32.4447 3.36596 33.6913 6.09091C35.4753 9.98065 29.8332 17.2045 20.4834 18.2517C16.9155 18.6471 15.0456 17.2793 14.5727 16.7663C14.0784 16.232 14.0031 16.2 13.8204 16.3068C13.5195 16.4671 13.713 16.948 13.8204 17.2258C14.0998 17.9525 15.2498 19.2348 17.1949 19.8653C18.9144 20.421 23.0949 20.7309 28.1567 18.786C33.8202 16.606 38.2479 10.547 36.9476 5.47112C35.6472 0.320422 27.0498 -1.37867 18.9144 1.49589C14.0783 3.20567 8.8339 5.89856 5.06177 9.4036C0.580352 13.5712 -0.128937 17.1938 0.161227 18.7112C1.20367 24.097 8.6727 27.602 11.6603 30.1987C11.5099 30.2842 11.3702 30.359 11.2519 30.4232C9.75813 31.1605 4.06232 34.1205 2.64374 37.2516C1.03172 40.7994 2.90166 43.3426 4.13755 43.6846C7.97416 44.7425 11.9182 42.8404 14.0354 39.6987C16.1525 36.557 15.8946 32.4749 14.9166 30.6048C14.9059 30.5834 14.8951 30.5621 14.8736 30.5407C15.2605 30.3163 15.6581 30.0812 16.045 29.8568C16.808 29.408 17.5603 28.9912 18.2051 28.6493C17.8397 29.6431 17.5711 30.8292 17.4421 32.539C17.2809 34.548 18.1084 37.1554 19.1938 38.1813C19.6774 38.6301 20.247 38.6408 20.6124 38.6408C21.8805 38.6408 22.4501 37.5935 23.0842 36.3539C23.8579 34.8365 24.5565 33.0733 24.5565 33.0733C24.5565 33.0733 23.686 37.8393 26.0503 37.8393C26.91 37.8393 27.7805 36.728 28.1674 36.1616V36.1723C28.1674 36.1723 28.1889 36.1402 28.2319 36.0654C28.3179 35.9265 28.3716 35.841 28.3716 35.841V35.8196C28.7155 35.2212 29.4893 33.8641 30.6392 31.6093C32.1222 28.7027 33.5516 25.0694 33.5516 25.0694C33.5516 25.0694 33.6805 25.9564 34.1212 27.431C34.3791 28.2966 34.9164 29.2477 35.3463 30.1667C35.0024 30.6476 34.7875 30.9147 34.7875 30.9147C34.7875 30.9147 34.7875 30.9147 34.7982 30.9254C34.5188 31.2887 34.2179 31.6841 33.8847 32.0688C32.7133 33.458 31.3162 35.0502 31.1228 35.5097C30.8971 36.0547 30.9508 36.4501 31.3807 36.7707C31.6924 37.0058 32.2512 37.0378 32.8208 37.0058C33.874 36.931 34.6155 36.6745 34.9809 36.5142C35.5505 36.3112 36.2168 36.0013 36.8401 35.5418C37.99 34.6976 38.6885 33.4901 38.6241 31.8978C38.5918 31.0216 38.3017 30.1453 37.947 29.3225C38.0545 29.1729 38.1512 29.0233 38.2587 28.8737C40.0749 26.2342 41.4827 23.3383 41.4827 23.3383C41.4827 23.3383 41.6117 24.2252 42.0523 25.6999C42.2672 26.4479 42.7079 27.2601 43.0947 28.0508C41.386 29.4293 40.3328 31.0323 39.9567 32.0795C39.2796 34.0244 39.8062 34.9006 40.8057 35.1037C41.257 35.1998 41.9018 34.9861 42.3747 34.7831C42.9765 34.5907 43.6858 34.2595 44.3629 33.7679C45.5128 32.9237 46.6197 31.7482 46.5552 30.156C46.523 29.4293 46.3295 28.7134 46.0609 28.0188C47.5117 27.4204 49.3816 27.0891 51.7674 27.3669C56.8829 27.9654 57.8931 31.1391 57.6997 32.4749C57.5062 33.8106 56.4315 34.5373 56.0769 34.7617C55.7222 34.9861 55.604 35.0609 55.6363 35.2212C55.6793 35.4563 55.8512 35.4456 56.1521 35.4029C56.5712 35.3281 58.8388 34.3236 58.9355 31.8658C59.0967 28.7241 56.0876 25.2938 50.768 25.3259ZM11.3057 38.5553C9.60768 40.3933 7.24338 41.0879 6.22243 40.5001C5.12625 39.8697 5.55613 37.1554 7.64101 35.2105C8.90913 34.0244 10.5426 32.9237 11.6281 32.2505C11.8753 32.1009 12.2406 31.8871 12.6813 31.62C12.7565 31.5773 12.7995 31.5559 12.7995 31.5559C12.8855 31.5024 12.9714 31.449 13.0574 31.3956C13.8204 34.174 13.0896 36.6211 11.3057 38.5553ZM23.6645 30.1987C23.0734 31.6307 21.8375 35.296 21.0853 35.093C20.4405 34.922 20.0428 32.1436 20.9563 29.3973C21.4184 28.0188 22.3964 26.3731 22.966 25.732C23.8902 24.7061 24.9111 24.3641 25.1583 24.7809C25.47 25.3259 24.0299 29.3011 23.6645 30.1987ZM33.8632 35.0502C33.6161 35.1785 33.3796 35.264 33.2722 35.1998C33.1969 35.1571 33.3796 34.9861 33.3796 34.9861C33.3796 34.9861 34.6585 33.6183 35.1636 32.9985C35.4538 32.6352 35.7977 32.2077 36.1631 31.7269V31.8658C36.1631 33.5007 34.5725 34.6014 33.8632 35.0502ZM41.7299 33.2657C41.5472 33.1374 41.5794 32.71 42.192 31.3742C42.4284 30.8506 42.9873 29.9743 43.9437 29.1301C44.0512 29.4721 44.1264 29.8034 44.1157 30.1133C44.1049 32.1757 42.6219 32.9451 41.7299 33.2657Z" fill="#CD6799"/>
</g>
<defs>
<clipPath id="clip0_18_6">
<rect width="59" height="44" fill="white"/>
</clipPath>
</defs>
</svg>
