<svg width="44" height="43" viewBox="0 0 44 43" fill="none" xmlns="http://www.w3.org/2000/svg">
<g clip-path="url(#clip0_18_21)">
<path d="M0 21.4999V42.9999H22H44V21.4999V-0.00012207H22H0V21.4999Z" fill="#007ACC"/>
<path d="M10.014 18.7762L10 20.5371H12.8635H15.727V28.4887L15.727 36.4403H17.7524H19.7778V28.4887V20.5371H22.6413H25.5048V18.8103C25.5048 17.8548 25.4838 17.0562 25.4559 17.0357C25.4349 17.0084 21.9498 16.9948 17.7244 17.0016L10.0349 17.0221L10.014 18.7762Z" fill="white"/>
<path d="M35.1653 17.1768C36.2828 17.4499 37.1349 17.9345 37.9171 18.7262C38.3222 19.1494 38.9228 19.9207 38.9717 20.1049C38.9857 20.1595 37.072 21.4154 35.9126 22.1184C35.8707 22.1457 35.7031 21.9683 35.5146 21.6953C34.9488 20.8899 34.3552 20.5418 33.4472 20.4803C32.1133 20.3916 31.2542 21.0741 31.2612 22.214C31.2612 22.5484 31.3101 22.7464 31.4498 23.0194C31.7431 23.6132 32.2879 23.9681 33.999 24.6916C37.1488 26.0157 38.4968 26.8894 39.3349 28.1316C40.2707 29.5172 40.4803 31.7286 39.8447 33.3735C39.1463 35.1618 37.4142 36.3767 34.9768 36.7794C34.2225 36.9091 32.4346 36.8886 31.6244 36.7453C29.8574 36.4381 28.1812 35.5849 27.1476 34.4656C26.7425 34.0287 25.9533 32.8889 26.0022 32.807C26.0231 32.7797 26.2047 32.6705 26.4072 32.5545C26.6028 32.4453 27.3431 32.0289 28.0415 31.633L29.3057 30.9164L29.5711 31.2986C29.9412 31.8514 30.7514 32.6091 31.2403 32.8616C32.6441 33.5851 34.5717 33.4827 35.5215 32.65C35.9266 32.2883 36.0942 31.9129 36.0942 31.36C36.0942 30.8618 36.0314 30.6434 35.766 30.268C35.4238 29.7902 34.7253 29.3875 32.7419 28.548C30.472 27.5924 29.4942 26.9986 28.6003 26.0567C28.0834 25.5107 27.5946 24.637 27.392 23.9067C27.2244 23.2992 27.1825 21.7772 27.3152 21.1629C27.7831 19.0197 29.4384 17.5249 31.8269 17.0813C32.6022 16.938 34.4041 16.9926 35.1653 17.1768Z" fill="white"/>
</g>
<defs>
<clipPath id="clip0_18_21">
<rect width="44" height="43" fill="white"/>
</clipPath>
</defs>
</svg>
