<svg width="48" height="48" viewBox="0 0 48 48" fill="none" xmlns="http://www.w3.org/2000/svg">
<g clip-path="url(#clip0_18_17)">
<path fill-rule="evenodd" clip-rule="evenodd" d="M0 23.9993C0 20.5192 0.747018 17.216 2.07756 14.2324L13.5259 45.5984C5.52017 41.7088 0 33.4991 0 23.9993ZM40.2016 22.7887C40.2016 24.8423 39.411 27.2259 38.376 30.547L35.9804 38.5452L27.3072 12.7474C28.7517 12.6709 30.0537 12.5179 30.0537 12.5179C31.3468 12.3664 31.1953 10.4643 29.9007 10.5408C29.9007 10.5408 26.0141 10.8453 23.5045 10.8453C21.1465 10.8453 17.1833 10.5408 17.1833 10.5408C15.8888 10.4643 15.7373 12.4414 17.0303 12.5179C17.0303 12.5179 18.2559 12.6709 19.5489 12.7474L23.287 22.9912L18.0339 38.7432L9.29459 12.7474C10.7406 12.6709 12.0412 12.5179 12.0412 12.5179C13.3342 12.3664 13.1812 10.4643 11.8882 10.5408C11.8882 10.5408 8.00155 10.8453 5.49197 10.8453C5.04196 10.8453 4.51095 10.8349 3.94693 10.8169C8.23856 4.30218 15.6143 0 23.9996 0C30.2473 0 35.9369 2.38804 40.2061 6.30017C40.1026 6.29417 40.0021 6.28064 39.8956 6.28064C37.5375 6.28064 35.8649 8.3342 35.8649 10.5408C35.8649 12.5178 37.0065 14.192 38.223 16.1705C39.135 17.7681 40.2016 19.8216 40.2016 22.7887ZM45.0599 12.4854C46.9335 15.904 48 19.8266 48 23.9998C48 32.853 43.2014 40.5843 36.0656 44.7439L43.3964 23.5497C44.7659 20.1251 45.2219 17.3875 45.2219 14.9529C45.2219 14.0694 45.1634 13.2504 45.0599 12.4854ZM24.4211 26.0988L31.7983 46.3103C31.8463 46.4288 31.9063 46.5369 31.9693 46.6404C29.4747 47.5179 26.7941 48.0009 23.9996 48.0009C21.6445 48.0009 19.3704 47.6558 17.2193 47.0228L24.4211 26.0988Z" fill="#00759D"/>
</g>
<defs>
<clipPath id="clip0_18_17">
<rect width="48" height="48" fill="white"/>
</clipPath>
</defs>
</svg>
