<?xml version="1.0" encoding="UTF-8" standalone="no"?>
<!DOCTYPE svg PUBLIC "-//W3C//DTD SVG 1.1//EN" "http://www.w3.org/Graphics/SVG/1.1/DTD/svg11.dtd">
<svg width="100%" height="100%" viewBox="0 0 300 300" version="1.1" xmlns="http://www.w3.org/2000/svg" xmlns:xlink="http://www.w3.org/1999/xlink" xml:space="preserve" xmlns:serif="http://www.serif.com/" style="fill-rule:evenodd;clip-rule:evenodd;stroke-linejoin:round;stroke-miterlimit:2;">
    <g transform="matrix(0.175797,0,0,0.175797,-83.8148,-132.248)">
        <path d="M1499.81,1501.97C1499.81,1501.97 1650.38,1312.21 1589.53,1163.7C1589.53,1163.7 1557.56,1120.39 1495.68,1113.17C1495.68,1113.17 1505.87,1104.43 1524.12,1108.15C1524.12,1108.15 1507.9,1092.26 1490.33,1094.63C1490.33,1094.63 1494.72,1084.15 1474.44,1077.39C1474.44,1077.39 1483.57,1087.53 1478.16,1103.75C1478.16,1103.75 1387.13,988.036 1171.96,1100.9C1171.96,1100.9 1006.95,1226.31 1121.14,1252.71C1121.14,1252.71 1119.16,1345.11 1152.16,1390.66C1152.16,1390.66 1136.32,1304.85 1152.16,1261.95C1152.16,1261.95 1197.04,1262.61 1252.48,1230.27C1252.48,1230.27 1251.88,1244.72 1240.46,1252.16C1240.46,1252.16 1299.68,1272.46 1434.33,1185.33C1434.33,1185.33 1426.41,1243.41 1491.35,1290.41C1491.35,1290.41 1501.91,1362.75 1512.47,1373.31L1499.81,1501.97Z" style="fill:rgb(33,38,52);"/>
    </g>
    <g transform="matrix(0.175797,0,0,0.175797,-83.8148,-132.248)">
        <path d="M1844.43,1975.11L1869.65,1967.26C1869.65,1967.26 1833.35,1709.02 1677.42,1657.87L1519.83,1607.54C1519.83,1607.54 1364.52,1817.9 1249.01,1618.86C1249.01,1618.86 988.092,1653.01 951.996,1861.34L1277.89,1893.31L1313.98,2090.28L1372.77,2144.94L1504.59,2128.85L1687.5,2141.94L1730.16,2079.85L1695.52,2027.47L1673.33,1998.62L1844.43,1975.11Z" style="fill:rgb(255,204,48);"/>
    </g>
    <g transform="matrix(0.175797,0,0,0.175797,-83.8148,-132.248)">
        <path d="M1519.83,1607.54C1519.83,1607.54 1342.13,1837.87 1249.01,1618.86L1273.38,1611.72L1277.34,1584.66C1277.34,1584.66 1185.59,1580.04 1151.27,1453.31C1151.27,1453.31 1141.97,1454.08 1130.9,1446.36C1108.74,1430.91 1080.32,1392.34 1110.98,1345.37C1114.86,1339.41 1122.04,1333.89 1128.17,1333.85L1143.35,1366.19L1147.18,1260.91C1147.18,1260.91 1241.34,1237.25 1252.74,1229.91C1252.74,1229.91 1253.2,1245.39 1240.76,1252.69C1240.76,1252.69 1319.96,1258.11 1434.45,1185.59C1434.45,1185.59 1425.95,1229.62 1491.44,1289.77C1491.44,1289.77 1501.22,1351.42 1513.05,1373.05C1513.05,1373.05 1561.05,1296.87 1608.7,1345.19C1608.7,1345.19 1651.62,1415.49 1566.12,1453.67C1566.12,1453.67 1537.4,1466.18 1524.89,1458.4L1499.21,1500.98C1499.21,1500.98 1485.69,1578.37 1490.42,1599.66L1519.83,1607.54Z" style="fill:rgb(253,188,153);"/>
        <path d="M1271.36,1494.64C1271.36,1494.64 1305.96,1515.02 1374.39,1480.81L1368.11,1473.51C1368.11,1473.51 1321.49,1504.65 1272.06,1486.07L1271.36,1494.64Z" style="fill:rgb(39,40,55);"/>
        <g transform="matrix(1,0,0,1.15385,-7.18118,-215.925)">
            <ellipse cx="1401.23" cy="1376.06" rx="15.841" ry="21.966" style="fill:rgb(39,40,55);"/>
        </g>
        <g transform="matrix(0.368533,0,0,0.261538,877.308,1007.9)">
            <ellipse cx="1401.23" cy="1376.06" rx="15.841" ry="21.966" style="fill:white;"/>
        </g>
        <g transform="matrix(1,0,0,1.15385,-177.84,-215.503)">
            <ellipse cx="1401.23" cy="1376.06" rx="15.841" ry="21.966" style="fill:rgb(39,40,55);"/>
        </g>
        <g transform="matrix(0.368533,0,0,0.261538,707.258,1012.5)">
            <ellipse cx="1401.23" cy="1376.06" rx="15.841" ry="21.966" style="fill:white;"/>
        </g>
        <path d="M1189.82,1320.47C1189.82,1320.47 1210.64,1302.89 1240.65,1315.87L1246.32,1302.62C1246.32,1302.62 1215.5,1289.65 1185.77,1309.38L1189.82,1320.47Z" style="fill:rgb(35,40,51);"/>
        <g transform="matrix(1.03364,0.116423,-0.118794,1.05469,296.454,-213.594)">
            <path d="M1189.82,1320.47C1189.82,1320.47 1210.64,1302.89 1240.65,1315.87L1246.32,1302.62C1246.32,1302.62 1215.5,1289.65 1185.77,1309.38L1189.82,1320.47Z" style="fill:rgb(35,40,51);"/>
        </g>
    </g>
    <g transform="matrix(0.175797,0,0,0.175797,-83.8148,-132.248)">
        <path d="M1478.06,2229.04C1478.06,2229.04 1492.58,2201.98 1546.04,2229.04L1663.07,2261.8L1776.35,2260.59C1776.35,2260.59 1882.6,2266.62 1871.25,2145.96L1844.43,1975.11L1672.76,1998.51L1686.76,2110.84C1686.76,2110.84 1616.53,2135.66 1517.26,2120.34C1517.26,2120.34 1442.9,2102.81 1393.43,2133.09L1402.29,2174C1402.29,2174 1445.7,2150.62 1458.68,2153.87C1458.68,2153.87 1412.36,2170.46 1405.88,2192.09L1414.61,2232L1420.56,2233.08C1420.56,2233.08 1439.76,2215.51 1448.68,2217.13C1448.68,2217.13 1449.86,2239.86 1478.06,2229.04Z" style="fill:rgb(255,186,149);"/>
    </g>
    <g transform="matrix(0.175797,0,0,0.175797,-83.8148,-132.248)">
        <path d="M684.925,2245.56L592.519,1888.32C592.519,1888.32 594.079,1855.68 630.483,1857.34L1308.13,1861.19C1308.13,1861.19 1339.96,1853.34 1347.1,1900.7L1413.54,2230L1661.06,2233.01C1661.06,2233.01 1669.89,2235.81 1670.11,2246.62C1670.11,2246.62 1672.71,2257.01 1662.32,2261.76L696.683,2260.64C696.683,2260.64 688.522,2258.82 684.925,2245.56Z" style="fill:rgb(57,60,74);"/>
    </g>
    <g transform="matrix(0.179859,0,0,0.178764,-92.0793,-138.363)">
        <path d="M2085.73,2259.07L2107.6,2060.33L1906.27,2060.37L1931.17,2258.5L2085.73,2259.07Z" style="fill:rgb(245,232,213);"/>
    </g>
    <g transform="matrix(0.175797,0,0,0.175797,-83.8148,-132.248)">
        <path d="M2109.3,2060.32L2121.41,2060.32C2121.41,2060.32 2126.37,2060.06 2126.46,2046.24C2126.55,2032.42 2126.86,2045.84 2126.86,2045.84C2126.86,2045.84 2128.76,2030.73 2115.65,2031.09L2098.32,2031C2098.32,2031 2107.19,2002.08 2079.85,2004.5L1930.53,2003.81C1930.53,2003.81 1914.96,2004.15 1918.76,2029.93L1895.58,2029.93C1895.58,2029.93 1879.99,2028.26 1883.45,2049.2C1883.45,2049.2 1882.77,2061.25 1893.85,2059.69L2109.3,2060.32Z" style="fill:rgb(54,59,70);"/>
    </g>
    <g transform="matrix(0.175797,0,0,0.175797,-83.8148,-132.248)">
        <path d="M478.294,2295.89L2166.84,2295.89C2167.41,2296.7 2194.69,2280.16 2166.51,2261.93L476.724,2260.97L476.599,2295.89L478.294,2295.89Z" style="fill:rgb(125,122,124);"/>
    </g>
    <g transform="matrix(0.175797,0,0,0.175797,-83.8148,-132.248)">
        <path d="M2017.41,1999.66C2017.41,1999.66 1998.04,1932.18 2052.23,1906.38C2052.23,1906.38 2091.71,1838.21 2045.79,1817.89C2045.79,1817.89 1992.82,1799.9 2006.42,1744.98C2006.42,1744.98 1964.68,1769.12 1993.61,1812.91C1993.61,1812.91 2035.51,1860.77 1988.74,1889.69C1988.74,1889.69 1944.94,1914.82 1977.65,1964.84L2003.87,2001.9L2017.41,1999.66Z" style="fill:rgb(255,252,244);"/>
    </g>
</svg>
