<svg  viewBox="0 0 606 585" fill="none" xmlns="http://www.w3.org/2000/svg">
<path d="M605.931 304.443C606.019 376.831 578.024 446.433 527.831 498.62C524.805 501.786 521.698 504.876 518.508 507.89C513.649 512.51 508.627 516.95 503.441 521.212C454.932 561.156 394.373 583.602 331.534 584.929C329.44 584.976 327.338 585 325.229 585C275.114 585 212.08 558.247 154.878 521.212C150.145 518.148 145.455 515.013 140.807 511.807C138.634 510.322 136.472 508.817 134.32 507.29C112.258 491.72 91.3164 474.622 71.6502 456.12C58.774 444.043 46.6996 431.139 35.5037 417.49C-8.44895 363.304 -18.1433 314.48 44.5186 304.443C51.9375 303.259 59.1378 301.993 66.1196 300.645C76.2327 298.703 85.9113 296.605 95.1553 294.352C107.607 291.327 119.306 288.047 130.251 284.512C133.933 283.328 137.53 282.12 141.044 280.888C192.984 262.655 227.748 238.878 251.411 213.08C255.425 208.713 259.125 204.294 262.512 199.822C267.694 193.015 272.4 185.859 276.599 178.406C282.394 168.051 287.262 157.204 291.145 145.991L291.358 145.375C310.186 91.0942 304.458 40.7458 325.229 23.8946C414.019 -48.1457 524.56 54.4463 576.445 175.429C579.061 181.526 581.52 187.659 583.825 193.828C584.86 196.584 585.858 199.346 586.819 202.112C589.348 209.321 591.641 216.549 593.701 223.796C594.491 226.56 595.244 229.321 595.961 232.079C596.727 235.056 597.462 238.025 598.141 240.995C603.19 262.734 605.931 284.173 605.931 304.443Z" fill="#F2F2F2"/>
<path d="M329.504 584.929C327.41 584.976 325.308 585 323.199 585C273.083 585 210.05 558.247 152.848 521.212C148.115 518.148 143.425 515.013 138.776 511.807L142.853 487.012L266.273 470.634L328.216 517.974L329.504 584.929Z" fill="#191919"/>
<path d="M335.445 202.112H317.858C317.313 202.112 316.79 202.329 316.405 202.714C316.02 203.099 315.804 203.621 315.803 204.165V221.743C315.803 222.013 315.856 222.28 315.959 222.529C316.062 222.778 316.213 223.005 316.404 223.196C316.595 223.386 316.821 223.538 317.071 223.641C317.32 223.744 317.588 223.796 317.858 223.796H335.445C335.99 223.796 336.512 223.579 336.897 223.194C337.282 222.809 337.499 222.287 337.499 221.743V204.165C337.498 203.621 337.281 203.1 336.896 202.715C336.511 202.33 335.989 202.113 335.445 202.112Z" fill="#E6E6E6"/>
<path d="M337.468 233.769C337.38 233.296 337.13 232.869 336.761 232.56C336.391 232.252 335.926 232.082 335.445 232.079H317.858C317.313 232.08 316.791 232.296 316.405 232.681C316.02 233.066 315.804 233.588 315.803 234.132V251.71C315.803 251.98 315.856 252.247 315.959 252.497C316.062 252.746 316.213 252.972 316.404 253.163C316.595 253.354 316.821 253.505 317.071 253.608C317.32 253.711 317.588 253.764 317.858 253.763H335.445C335.99 253.763 336.512 253.547 336.897 253.162C337.282 252.777 337.499 252.255 337.499 251.71V234.132C337.501 234.011 337.49 233.889 337.468 233.769Z" fill="#E6E6E6"/>
<path d="M336.243 262.205C335.99 262.1 335.719 262.046 335.445 262.047H317.858C317.588 262.046 317.321 262.099 317.071 262.202C316.822 262.305 316.595 262.456 316.404 262.647C316.213 262.838 316.062 263.064 315.959 263.314C315.856 263.563 315.803 263.83 315.804 264.1V281.678C315.803 281.948 315.855 282.215 315.958 282.465C316.06 282.714 316.212 282.941 316.403 283.132C316.594 283.323 316.82 283.474 317.07 283.577C317.32 283.68 317.588 283.732 317.858 283.731H335.445C335.99 283.731 336.512 283.514 336.898 283.129C337.283 282.744 337.499 282.222 337.499 281.678V264.1C337.498 263.696 337.379 263.301 337.156 262.964C336.932 262.627 336.615 262.363 336.243 262.205Z" fill="#E6E6E6"/>
<path d="M372.39 262.047H354.802C354.532 262.046 354.265 262.099 354.015 262.202C353.766 262.305 353.539 262.456 353.348 262.647C353.158 262.838 353.006 263.064 352.903 263.314C352.8 263.563 352.748 263.83 352.748 264.1V281.678C352.748 281.947 352.8 282.215 352.903 282.464C353.006 282.713 353.158 282.94 353.348 283.131C353.539 283.321 353.766 283.473 354.015 283.576C354.265 283.679 354.532 283.731 354.802 283.731H372.39C372.934 283.731 373.457 283.514 373.842 283.129C374.227 282.744 374.444 282.222 374.444 281.678V264.1C374.444 263.555 374.227 263.033 373.842 262.648C373.457 262.263 372.934 262.047 372.39 262.047Z" fill="#E6E6E6"/>
<path d="M221.448 193.509C251.261 193.509 275.429 169.354 275.429 139.558C275.429 109.762 251.261 85.6073 221.448 85.6073C191.636 85.6073 167.468 109.762 167.468 139.558C167.468 169.354 191.636 193.509 221.448 193.509Z" fill="#FFB6B6"/>
<path d="M268.72 100.002C268.72 100.002 282.839 73.0269 251.778 70.5745C251.778 70.5745 225.298 46.5672 198.308 66.1856C198.308 66.1856 183.586 66.1856 175.536 82.8361C175.536 82.8361 163.957 78.4471 161.413 90.193C161.413 90.193 152.94 114.716 161.413 136.787C169.885 158.858 172.699 161.31 172.699 161.31C172.699 161.31 158.777 115.037 192.665 112.585C226.552 110.133 264.473 88.9669 267.297 115.942C270.121 142.917 274.371 149.564 274.371 149.564C274.371 149.564 301.194 111.038 268.72 100.002Z" fill="#191919"/>
<path d="M361.084 272.518L360.91 273.434L358.958 283.731L345.471 354.958L344.673 359.151L342.998 368.019L340.707 380.116L335.627 406.925L334.173 414.608L333.628 417.49L333.438 418.501L331.929 426.453L331.471 428.854L327.789 456.12L324.573 479.881L335.335 490.636L328.919 497.048L324.708 521.156L324.716 521.212H152.848C145.895 516.711 139.042 512.07 132.29 507.29L133.704 496.709C133.704 496.709 138.571 477.812 136.525 475.554C134.486 473.295 130.014 469.26 130.014 469.26L135.648 456.12L136.43 454.296L135.118 427.108L135.087 426.453L134.652 417.49L134.597 416.338L134.51 414.608L132.843 380.116L132.811 379.547L132.306 369.092L131.832 359.151L131.626 354.958L129.596 313.003L128.221 284.512L127.02 259.709L131.847 258.075L183.48 240.537L204.867 212.749L249.381 213.08L271.172 213.246L307.531 246.949L315.804 250.897L315.867 250.928L321.8 253.763L336.844 260.941L352.748 268.538L360.91 272.431L361.084 272.518Z" fill="#E4E4E4"/>
<path d="M210.62 440.273C207.358 441.536 203.858 442.069 200.368 441.834C196.878 441.599 193.481 440.602 190.418 438.914C187.355 437.225 184.7 434.886 182.639 432.06C180.579 429.235 179.163 425.992 178.492 422.561L94.3008 410.623L123.568 377.535L199.03 393.944C204.872 393.199 210.785 394.622 215.648 397.943C220.511 401.264 223.985 406.253 225.414 411.964C226.843 417.674 226.126 423.71 223.399 428.928C220.672 434.146 216.125 438.182 210.62 440.273V440.273Z" fill="#FFB6B6"/>
<path d="M173.082 380.116C171.522 378.14 169.315 376.778 166.848 376.27L132.305 369.092L128.758 368.358C126.696 367.928 124.749 367.068 123.043 365.834C121.337 364.599 119.911 363.019 118.858 361.196C117.766 359.282 117.106 357.153 116.922 354.958C116.758 352.962 116.997 350.953 117.626 349.051L129.595 313.003L137.362 289.614C138.303 286.793 138.859 283.858 139.013 280.888C139.446 272.67 136.902 264.571 131.847 258.075C127.403 252.365 121.239 248.235 114.266 246.296C107.294 244.356 99.8813 244.71 93.1249 247.304C92.9274 247.375 92.7219 247.454 92.5244 247.533C87.679 249.467 83.35 252.5 79.8794 256.394C76.4088 260.287 73.8918 264.934 72.5273 269.967L64.0892 300.645L46.6835 363.889C44.9411 370.225 44.5891 376.863 45.6516 383.348C46.7141 389.833 49.1659 396.012 52.8393 401.462C56.5127 406.912 61.321 411.505 66.935 414.925C72.549 418.346 78.8362 420.514 85.3662 421.281L135.118 427.108L158.141 429.809C160.803 430.129 163.489 429.434 165.661 427.864C167.834 426.294 169.336 423.963 169.866 421.336C169.903 421.193 169.932 421.048 169.953 420.902L170.506 417.49L175.191 388.763L175.239 388.471C175.483 387.005 175.417 385.504 175.046 384.065C174.674 382.626 174.005 381.281 173.082 380.116Z" fill="#E4E4E4"/>
<path d="M264.246 441.194C267.654 441.985 271.193 442.019 274.615 441.294C278.038 440.57 281.259 439.104 284.054 437.001C286.848 434.897 289.147 432.207 290.788 429.12C292.429 426.032 293.374 422.622 293.554 419.131L375.219 395.446L341.576 366.814L269.183 393.695C263.294 393.781 257.641 396.023 253.295 399.996C248.95 403.969 246.213 409.398 245.605 415.253C244.996 421.108 246.558 426.982 249.993 431.763C253.429 436.545 258.5 439.9 264.246 441.194V441.194Z" fill="#FFB6B6"/>
<path d="M415.765 342.465L376.925 253.124C373.748 245.789 368.074 239.816 360.91 236.265C358.695 235.175 356.369 234.328 353.973 233.738C353.601 233.643 353.23 233.556 352.859 233.485C347.777 232.376 342.505 232.474 337.468 233.769C332.863 234.952 328.559 237.091 324.837 240.047C321.115 243.004 318.058 246.712 315.867 250.928C315.843 250.964 315.822 251 315.804 251.039C313.355 255.773 312.053 261.015 312.002 266.343C311.952 271.672 313.153 276.938 315.511 281.717L315.993 282.68L343.441 337.775C344.378 339.659 344.906 341.719 344.99 343.822C345.075 345.924 344.713 348.02 343.93 349.973C343.147 351.926 341.959 353.691 340.445 355.153C338.931 356.615 337.125 357.741 335.145 358.456L333.217 359.151L298.548 371.667C295.946 372.594 293.807 374.495 292.579 376.968C291.352 379.441 291.132 382.293 291.966 384.925L292.053 385.201L301.771 416.282C301.819 416.424 301.866 416.567 301.922 416.709C302.007 416.977 302.113 417.238 302.238 417.49C303.27 419.805 305.096 421.676 307.386 422.766C309.676 423.856 312.279 424.094 314.729 423.436L333.438 418.501L337.254 417.49L385.568 404.737C391.925 403.059 397.844 400.026 402.92 395.849C407.996 391.671 412.108 386.447 414.976 380.533C417.844 374.619 419.399 368.156 419.535 361.585C419.672 355.015 418.386 348.493 415.765 342.465Z" fill="#E4E4E4"/>
<path d="M32.5137 418.438C43.7096 432.086 55.784 444.99 68.6602 457.067H425.756C429.197 457.073 432.495 458.442 434.927 460.874C437.359 463.306 438.726 466.603 438.73 470.042L439.243 560.481C461.211 550.393 481.784 537.513 500.451 522.159C505.634 517.903 510.656 513.462 515.518 508.837C518.702 505.821 521.81 502.731 524.841 499.567C547.567 475.905 565.97 448.447 579.215 418.438H32.5137Z" fill="#191919"/>
<path d="M360.372 202.112C359.997 201.419 359.441 200.841 358.764 200.438C358.087 200.035 357.313 199.822 356.525 199.822H97.5021C96.3408 199.825 95.228 200.288 94.4076 201.109C93.5872 201.931 93.126 203.044 93.125 204.205V359.151H360.909V204.205C360.914 203.472 360.729 202.752 360.372 202.112Z" fill="#191919"/>
<path d="M92.8904 354.956V374.076C92.8904 374.869 93.0466 375.654 93.3501 376.386C93.6536 377.118 94.0984 377.784 94.6592 378.344C95.22 378.905 95.8858 379.349 96.6185 379.653C97.3513 379.956 98.1366 380.112 98.9297 380.112H197.767V417.847H196.454C196.351 417.847 196.249 417.868 196.154 417.907C196.059 417.946 195.972 418.004 195.899 418.077C195.826 418.15 195.769 418.236 195.729 418.331C195.69 418.426 195.67 418.528 195.67 418.631V421.256C195.67 421.359 195.69 421.461 195.729 421.556C195.769 421.651 195.826 421.738 195.899 421.81C195.972 421.883 196.059 421.941 196.154 421.98C196.249 422.02 196.351 422.04 196.454 422.04H257.811C257.914 422.04 258.016 422.02 258.111 421.98C258.206 421.941 258.293 421.883 258.366 421.81C258.439 421.738 258.496 421.651 258.536 421.556C258.575 421.461 258.596 421.359 258.596 421.256V418.631C258.596 418.528 258.575 418.426 258.536 418.331C258.496 418.236 258.439 418.15 258.366 418.077C258.293 418.004 258.206 417.946 258.111 417.907C258.016 417.868 257.914 417.847 257.811 417.847H256.498V380.112H355.336C356.129 380.112 356.914 379.956 357.647 379.653C358.379 379.349 359.045 378.905 359.606 378.344C360.167 377.784 360.612 377.118 360.915 376.386C361.219 375.654 361.375 374.869 361.375 374.076V354.956H92.8904Z" fill="#191919"/>
<path d="M223.889 300.077C237.549 300.077 248.623 289.009 248.623 275.356C248.623 261.703 237.549 250.634 223.889 250.634C210.228 250.634 199.154 261.703 199.154 275.356C199.154 289.009 210.228 300.077 223.889 300.077Z" fill="#FBDE0B"/>
<path d="M286.91 136.61H282.96C282.96 106.761 253.402 87.2013 223.585 87.1855C219.247 87.1728 214.92 87.5934 210.667 88.4411C205.879 89.3965 200.909 90.5415 196.026 92.034C176.772 97.9327 158.916 109.335 158.916 136.61C158.912 141.907 159.586 147.183 160.923 152.308L157.099 153.303C155.68 147.852 154.963 142.242 154.965 136.61C154.965 112.778 164.755 96.4087 181.662 86.6485C190.551 81.5158 201.399 78.2071 213.827 76.5962C218.999 75.9086 224.227 75.7498 229.431 76.1224C263.721 78.5861 286.91 104.866 286.91 136.61Z" fill="#FBDE0B"/>
<path d="M293.491 138.797L291.935 127.3C291.551 124.396 290.152 121.722 287.984 119.751C286.593 118.466 284.928 117.513 283.114 116.966C281.301 116.419 279.386 116.291 277.516 116.592L275.043 116.932C274.366 117.021 273.714 117.243 273.124 117.586C272.534 117.929 272.018 118.386 271.606 118.93C271.19 119.472 270.886 120.091 270.712 120.751C270.537 121.411 270.494 122.099 270.587 122.775L274.182 149.26C274.33 150.34 274.814 151.345 275.565 152.135C276.317 152.924 277.298 153.457 278.369 153.659C278.686 153.722 279.009 153.754 279.333 153.753C279.566 153.753 279.798 153.738 280.028 153.706L282.794 153.335C284.48 153.111 286.102 152.546 287.561 151.672C289.021 150.799 290.286 149.637 291.279 148.257C291.493 147.957 291.698 147.649 291.888 147.333C293.368 144.75 293.934 141.742 293.491 138.797Z" fill="#FBDE0B"/>
<path d="M273.447 117.414C272.722 117.766 272.091 118.285 271.606 118.93C271.19 119.472 270.886 120.091 270.712 120.751C270.537 121.411 270.494 122.099 270.587 122.775L274.182 149.26C274.33 150.34 274.814 151.345 275.565 152.135C276.317 152.924 277.298 153.457 278.369 153.659L273.447 117.414Z" fill="white"/>
<path d="M293.491 138.797L291.935 127.3C291.551 124.396 290.152 121.722 287.984 119.751L291.563 146.102C291.617 146.525 291.726 146.939 291.887 147.334C293.368 144.75 293.933 141.742 293.491 138.797Z" fill="#3F3D56"/>
<path d="M281.19 147.081C282.271 146.935 282.814 144.364 282.404 141.339C281.993 138.313 280.784 135.98 279.703 136.127C278.622 136.273 278.078 138.844 278.489 141.869C278.9 144.894 280.109 147.228 281.19 147.081Z" fill="#3F3D56"/>
<path d="M278.82 132.868C279.901 132.721 280.444 130.15 280.034 127.125C279.623 124.1 278.414 121.766 277.333 121.913C276.252 122.059 275.708 124.63 276.119 127.656C276.53 130.681 277.739 133.014 278.82 132.868Z" fill="#3F3D56"/>
<path d="M293.831 138.395C294.912 138.249 295.456 135.677 295.045 132.652C294.635 129.627 293.425 127.294 292.344 127.44C291.264 127.587 290.72 130.158 291.131 133.183C291.541 136.208 292.75 138.542 293.831 138.395Z" fill="#3F3D56"/>
<path d="M223.584 87.1855C219.247 87.1728 214.92 87.5934 210.666 88.441C205.879 89.3965 200.909 90.5415 196.026 92.034C188.402 91.6628 182.792 89.6887 181.662 86.6485C190.551 81.5158 201.399 78.2071 213.827 76.5962C218.999 75.9085 224.227 75.7498 229.431 76.1224C229.982 76.4452 230.458 76.8808 230.829 77.4007C231.199 77.9206 231.455 78.513 231.58 79.1389C231.951 81.8869 228.815 84.8086 223.584 87.1855Z" fill="#3F3D56"/>
<path d="M173.145 164.011L167.061 138.734C166.845 137.822 166.363 136.995 165.677 136.355C164.991 135.716 164.131 135.294 163.206 135.141C162.944 135.101 162.68 135.08 162.416 135.078C162.043 135.079 161.672 135.124 161.31 135.212L158.955 135.781C155.924 136.514 153.307 138.418 151.679 141.077C150.051 143.736 149.545 146.932 150.272 149.963L152.998 161.303C153.62 163.972 155.103 166.364 157.217 168.109C157.56 168.386 157.918 168.642 158.291 168.875C159.616 169.705 161.093 170.261 162.636 170.511C164.179 170.76 165.756 170.698 167.275 170.328L169.621 169.76C170.242 169.615 170.826 169.344 171.336 168.962C172.095 168.409 172.672 167.643 172.994 166.762C173.316 165.88 173.369 164.923 173.145 164.011Z" fill="#FBDE0B"/>
<path d="M160.391 159.308C161.452 159.053 161.732 156.44 161.018 153.472C160.303 150.504 158.864 148.305 157.803 148.56C156.743 148.815 156.462 151.428 157.177 154.396C157.892 157.364 159.331 159.563 160.391 159.308Z" fill="#3F3D56"/>
<path d="M152.49 161.677C153.551 161.422 153.832 158.809 153.117 155.841C152.402 152.873 150.963 150.674 149.903 150.929C148.842 151.184 148.562 153.797 149.276 156.765C149.991 159.733 151.43 161.932 152.49 161.677Z" fill="#3F3D56"/>
<path d="M173.532 163.916L167.449 138.639C167.212 137.653 166.689 136.758 165.945 136.067C165.202 135.376 164.271 134.919 163.269 134.754L171.573 169.278C172.393 168.678 173.017 167.848 173.365 166.894C173.714 165.94 173.772 164.903 173.532 163.916Z" fill="white"/>
<path d="M151.647 144.957C151.479 144.254 151.164 143.594 150.722 143.022C149.867 145.236 149.71 147.658 150.272 149.963L152.998 161.303C153.62 163.972 155.103 166.364 157.217 168.109L151.647 144.957Z" fill="#3F3D56"/>
</svg>
