<svg width="610" height="531" viewBox="0 0 610 531" fill="none" xmlns="http://www.w3.org/2000/svg">
<g clip-path="url(#clip0_35_138)">
<path d="M551.843 276.341C551.922 342.046 526.51 405.224 480.948 452.593C478.201 455.467 475.38 458.272 472.485 461.008C468.074 465.201 463.515 469.232 458.808 473.1C414.774 509.357 359.802 529.731 302.761 530.935C300.861 530.979 298.953 531 297.038 531C251.547 531 194.329 506.716 142.404 473.1C138.108 470.319 133.85 467.473 129.631 464.563C127.659 463.216 125.696 461.849 123.743 460.463C103.716 446.331 84.7068 430.81 66.855 414.017C55.1668 403.054 44.2064 391.341 34.0434 378.953C-5.85402 329.768 -14.654 285.451 42.2266 276.341C48.9611 275.266 55.4971 274.117 61.8347 272.893C71.0148 271.13 79.8004 269.226 88.1915 267.181C99.4945 264.435 110.114 261.458 120.049 258.25C123.391 257.175 126.657 256.078 129.846 254.96C176.994 238.41 208.551 216.828 230.031 193.411C233.674 189.448 237.033 185.436 240.107 181.377C244.811 175.198 249.084 168.703 252.895 161.938C258.155 152.539 262.574 142.692 266.098 132.515L266.292 131.956C283.383 82.6855 278.183 36.9847 297.038 21.6889C377.636 -43.7015 477.979 49.4205 525.077 159.236C527.451 164.769 529.684 170.336 531.776 175.937C532.715 178.438 533.621 180.944 534.494 183.455C536.789 189.999 538.871 196.56 540.74 203.138C541.458 205.646 542.141 208.153 542.792 210.657C543.487 213.359 544.154 216.054 544.771 218.749C549.354 238.481 551.843 257.942 551.843 276.341Z" fill="#F2F2F2"/>
<path d="M300.918 530.936C299.018 530.979 297.11 531 295.195 531C249.704 531 192.486 506.716 140.561 473.1C136.265 470.319 132.008 467.473 127.788 464.563L131.489 442.057L243.521 427.191L299.749 470.161L300.918 530.936Z" fill="#191919"/>
<path d="M306.312 183.455H290.347C289.853 183.456 289.378 183.652 289.029 184.002C288.679 184.351 288.483 184.825 288.482 185.319V201.274C288.482 201.519 288.53 201.762 288.623 201.988C288.717 202.214 288.854 202.42 289.027 202.593C289.201 202.766 289.406 202.903 289.633 202.997C289.859 203.09 290.102 203.138 290.347 203.138H306.312C306.806 203.138 307.28 202.941 307.63 202.592C307.98 202.242 308.176 201.768 308.176 201.274V185.319C308.175 184.825 307.978 184.352 307.629 184.003C307.279 183.654 306.806 183.457 306.312 183.455Z" fill="#E6E6E6"/>
<path d="M308.148 212.191C308.068 211.761 307.841 211.373 307.506 211.093C307.171 210.813 306.749 210.659 306.312 210.657H290.347C289.853 210.657 289.378 210.853 289.029 211.203C288.679 211.552 288.483 212.026 288.482 212.52V228.475C288.482 228.72 288.53 228.963 288.623 229.189C288.717 229.415 288.854 229.621 289.027 229.794C289.201 229.967 289.406 230.105 289.633 230.198C289.859 230.292 290.102 230.34 290.347 230.339H306.312C306.806 230.339 307.28 230.142 307.63 229.793C307.98 229.444 308.176 228.97 308.176 228.475V212.52C308.178 212.41 308.168 212.299 308.148 212.191Z" fill="#E6E6E6"/>
<path d="M307.036 238.001C306.806 237.906 306.56 237.858 306.312 237.858H290.347C290.102 237.857 289.859 237.905 289.633 237.999C289.406 238.092 289.201 238.229 289.027 238.403C288.854 238.576 288.717 238.781 288.623 239.008C288.53 239.234 288.482 239.477 288.482 239.721V255.677C288.481 255.922 288.529 256.164 288.622 256.391C288.715 256.618 288.853 256.824 289.026 256.997C289.199 257.17 289.405 257.307 289.632 257.401C289.859 257.494 290.102 257.541 290.347 257.54H306.312C306.806 257.54 307.28 257.344 307.63 256.994C307.98 256.645 308.176 256.171 308.176 255.677V239.721C308.176 239.355 308.067 238.996 307.864 238.69C307.662 238.385 307.374 238.145 307.036 238.001Z" fill="#E6E6E6"/>
<path d="M339.848 237.858H323.883C323.638 237.857 323.395 237.905 323.169 237.999C322.942 238.092 322.737 238.229 322.563 238.403C322.39 238.576 322.253 238.781 322.159 239.008C322.066 239.234 322.018 239.477 322.018 239.721V255.677C322.018 255.921 322.066 256.164 322.159 256.39C322.253 256.617 322.39 256.822 322.563 256.995C322.737 257.169 322.942 257.306 323.169 257.399C323.395 257.493 323.638 257.541 323.883 257.54H339.848C340.342 257.54 340.816 257.344 341.166 256.994C341.516 256.645 341.712 256.171 341.712 255.677V239.721C341.712 239.227 341.516 238.753 341.166 238.404C340.816 238.054 340.342 237.858 339.848 237.858Z" fill="#E6E6E6"/>
<path d="M241.044 473.101H240.6L240.979 473.051L241.044 473.101Z" fill="#2F2E41"/>
<path d="M202.833 175.646C229.894 175.646 251.832 153.721 251.832 126.676C251.832 99.63 229.894 77.705 202.833 77.705C175.771 77.705 153.833 99.63 153.833 126.676C153.833 153.721 175.771 175.646 202.833 175.646Z" fill="#FFB6B6"/>
<path d="M245.743 90.7713C245.743 90.7713 258.559 66.2859 230.364 64.06C230.364 64.06 206.327 42.2687 181.827 60.0762C181.827 60.0762 168.464 60.0762 161.156 75.1897C161.156 75.1897 150.646 71.2059 148.336 81.8675C148.336 81.8675 140.645 104.127 148.336 124.16C156.027 144.194 158.581 146.42 158.581 146.42C158.581 146.42 145.944 104.419 176.705 102.193C207.466 99.9665 241.888 80.7545 244.451 105.24C247.015 129.725 250.873 135.758 250.873 135.758C250.873 135.758 275.221 100.788 245.743 90.7713Z" fill="#191919"/>
<path d="M329.585 247.362L329.427 248.194L327.655 257.54L315.413 322.192L314.689 325.998L313.168 334.048L311.088 345.028L306.477 369.363L305.157 376.337L304.662 378.953L304.49 379.87L303.12 387.088L302.704 389.267L299.362 414.017L296.443 435.584L306.211 445.347L300.388 451.167L296.565 473.05L296.572 473.1H140.561C134.25 469.014 128.029 464.802 121.9 460.463L123.184 450.859C123.184 450.859 127.602 433.706 125.744 431.657C123.894 429.607 119.834 425.944 119.834 425.944L124.948 414.017L125.658 412.361L124.467 387.683L124.439 387.088L124.044 378.953L123.994 377.906L123.915 376.337L122.402 345.028L122.373 344.512L121.914 335.022L121.484 325.998L121.297 322.192L119.454 284.111L118.206 258.25L117.116 235.736L121.498 234.253L168.367 218.333L187.781 193.11L228.188 193.411L247.968 193.562L280.973 224.153L288.482 227.737L288.54 227.766L293.926 230.339L307.581 236.854L322.018 243.75L329.427 247.283L329.585 247.362Z" fill="#E4E4E4"/>
<path d="M193.003 399.632C190.042 400.779 186.865 401.263 183.697 401.049C180.529 400.836 177.446 399.931 174.665 398.398C171.885 396.866 169.475 394.742 167.604 392.178C165.734 389.613 164.448 386.67 163.839 383.555L87.4159 372.719L113.983 342.686L182.483 357.58C187.786 356.904 193.153 358.196 197.567 361.21C201.981 364.225 205.136 368.753 206.432 373.936C207.729 379.12 207.078 384.599 204.603 389.335C202.128 394.071 198.001 397.735 193.003 399.632V399.632Z" fill="#FFB6B6"/>
<path d="M158.929 345.028C157.513 343.235 155.509 341.999 153.27 341.538L121.914 335.022L118.694 334.356C116.823 333.965 115.055 333.185 113.506 332.064C111.958 330.944 110.663 329.509 109.708 327.855C108.716 326.118 108.117 324.185 107.95 322.192C107.801 320.38 108.018 318.557 108.589 316.831L119.454 284.111L126.504 262.88C127.359 260.32 127.863 257.655 128.003 254.96C128.396 247.5 126.087 240.149 121.498 234.253C117.464 229.07 111.869 225.321 105.54 223.561C99.21 221.8 92.4817 222.121 86.3486 224.476C86.1693 224.54 85.9828 224.612 85.8035 224.684C81.4052 226.439 77.4755 229.192 74.3251 232.727C71.1748 236.261 68.89 240.479 67.6513 245.047L59.9917 272.893L44.192 330.299C42.6103 336.05 42.2908 342.076 43.2552 347.962C44.2197 353.848 46.4453 359.457 49.7798 364.404C53.1143 369.351 57.479 373.52 62.575 376.625C67.671 379.729 73.3782 381.697 79.3057 382.393L124.467 387.683L145.366 390.134C147.783 390.425 150.22 389.794 152.193 388.369C154.165 386.944 155.528 384.828 156.01 382.444C156.043 382.314 156.07 382.182 156.088 382.049L156.59 378.953L160.843 352.877L160.886 352.612C161.108 351.281 161.048 349.919 160.711 348.613C160.374 347.307 159.767 346.086 158.929 345.028Z" fill="#E4E4E4"/>
<path d="M241.682 400.468C244.775 401.186 247.988 401.217 251.094 400.56C254.201 399.902 257.125 398.572 259.662 396.662C262.198 394.753 264.285 392.311 265.775 389.509C267.265 386.706 268.122 383.611 268.285 380.442L342.416 358.943L311.877 332.954L246.163 357.354C240.817 357.432 235.686 359.467 231.741 363.073C227.797 366.68 225.313 371.607 224.76 376.922C224.208 382.236 225.625 387.568 228.744 391.908C231.863 396.248 236.466 399.294 241.682 400.468V400.468Z" fill="#FFB6B6"/>
<path d="M379.222 310.853L343.964 229.758C341.081 223.101 335.93 217.679 329.427 214.455C327.417 213.466 325.305 212.697 323.13 212.162C322.793 212.076 322.456 211.997 322.119 211.932C317.505 210.926 312.721 211.015 308.148 212.191C303.968 213.264 300.061 215.206 296.682 217.889C293.304 220.573 290.529 223.938 288.54 227.766C288.518 227.798 288.499 227.831 288.482 227.866C286.26 232.163 285.078 236.921 285.032 241.758C284.986 246.594 286.077 251.374 288.217 255.712L288.654 256.587L313.57 306.596C314.42 308.306 314.9 310.176 314.976 312.084C315.053 313.993 314.725 315.895 314.014 317.668C313.303 319.441 312.225 321.043 310.85 322.37C309.476 323.697 307.836 324.718 306.039 325.368L304.289 325.998L272.819 337.359C270.457 338.201 268.515 339.926 267.401 342.171C266.286 344.416 266.087 347.005 266.845 349.393L266.923 349.644L275.745 377.856C275.788 377.985 275.831 378.114 275.881 378.243C275.959 378.487 276.055 378.724 276.168 378.953C277.106 381.054 278.763 382.752 280.841 383.742C282.92 384.731 285.283 384.947 287.507 384.35L304.49 379.87L307.954 378.953L351.81 367.377C357.581 365.853 362.954 363.101 367.561 359.309C372.169 355.517 375.902 350.775 378.505 345.407C381.108 340.039 382.52 334.172 382.644 328.208C382.767 322.244 381.6 316.324 379.222 310.853Z" fill="#E4E4E4"/>
<path d="M31.3293 379.812C41.4923 392.201 52.4527 403.914 64.1409 414.877H388.291C391.414 414.882 394.407 416.124 396.615 418.332C398.822 420.539 400.064 423.532 400.067 426.653L400.533 508.744C420.474 499.588 439.149 487.896 456.094 473.959C460.799 470.096 465.358 466.066 469.771 461.868C472.661 459.13 475.482 456.325 478.234 453.453C498.863 431.975 515.568 407.052 527.591 379.812H31.3293Z" fill="#191919"/>
<path d="M479.105 452.593C476.358 455.467 473.537 458.272 470.642 461.008H401.641V452.593H479.105Z" fill="white"/>
<path d="M328.939 183.455C328.598 182.827 328.094 182.302 327.479 181.936C326.864 181.57 326.162 181.377 325.446 181.377H90.3219C89.2677 181.38 88.2576 181.8 87.5129 182.545C86.7682 183.291 86.3495 184.301 86.3486 185.355V325.998H329.427V185.355C329.431 184.69 329.263 184.036 328.939 183.455Z" fill="#191919"/>
<path d="M86.1357 322.191V339.546C86.1357 340.266 86.2775 340.978 86.553 341.643C86.8285 342.308 87.2323 342.912 87.7414 343.42C88.2504 343.929 88.8548 344.333 89.5199 344.608C90.185 344.883 90.8979 345.025 91.6178 345.025H181.336V379.277H180.144C180.051 379.277 179.958 379.295 179.872 379.331C179.786 379.367 179.707 379.419 179.641 379.485C179.575 379.551 179.522 379.63 179.486 379.716C179.451 379.802 179.432 379.895 179.432 379.988V382.371C179.432 382.464 179.451 382.557 179.486 382.643C179.522 382.73 179.575 382.808 179.641 382.874C179.707 382.94 179.785 382.993 179.872 383.028C179.958 383.064 180.051 383.083 180.144 383.083H235.841C235.934 383.083 236.027 383.064 236.113 383.028C236.199 382.993 236.278 382.94 236.344 382.874C236.41 382.808 236.463 382.73 236.498 382.643C236.534 382.557 236.553 382.464 236.553 382.371V379.988C236.553 379.895 236.534 379.802 236.498 379.716C236.463 379.63 236.41 379.551 236.344 379.485C236.278 379.419 236.199 379.367 236.113 379.331C236.027 379.295 235.934 379.277 235.841 379.277H234.649V345.025H324.367C325.087 345.025 325.8 344.883 326.465 344.608C327.13 344.333 327.735 343.929 328.244 343.42C328.753 342.912 329.156 342.308 329.432 341.643C329.707 340.978 329.849 340.266 329.849 339.546V322.191H86.1357Z" fill="#191919"/>
<path d="M205.048 272.378C217.448 272.378 227.5 262.331 227.5 249.938C227.5 237.545 217.448 227.499 205.048 227.499C192.647 227.499 182.595 237.545 182.595 249.938C182.595 262.331 192.647 272.378 205.048 272.378Z" fill="#FBDE0B"/>
<path d="M262.255 124H258.669C258.669 96.9062 231.838 79.152 204.772 79.1376C200.835 79.1261 196.906 79.5079 193.045 80.2773C188.699 81.1446 184.188 82.1839 179.756 83.5386C162.278 88.8928 146.069 99.2429 146.069 124C146.066 128.808 146.678 133.597 147.891 138.249L144.42 139.152C143.132 134.204 142.482 129.112 142.483 124C142.483 102.368 151.369 87.5094 166.717 78.6502C174.786 73.9913 184.633 70.988 195.914 69.5258C200.609 68.9016 205.355 68.7575 210.079 69.0958C241.205 71.332 262.255 95.186 262.255 124Z" fill="#FBDE0B"/>
<path d="M268.229 125.985L266.816 115.549C266.467 112.914 265.197 110.486 263.23 108.697C261.967 107.53 260.455 106.666 258.809 106.169C257.163 105.673 255.425 105.557 253.727 105.83L251.482 106.138C250.868 106.219 250.276 106.421 249.74 106.732C249.205 107.043 248.737 107.458 248.363 107.952C247.985 108.443 247.709 109.005 247.551 109.604C247.392 110.203 247.353 110.828 247.437 111.442L250.701 135.482C250.835 136.462 251.274 137.375 251.957 138.092C252.639 138.808 253.529 139.292 254.502 139.475C254.79 139.532 255.083 139.561 255.377 139.561C255.588 139.561 255.799 139.546 256.008 139.518L258.518 139.181C260.048 138.978 261.521 138.464 262.846 137.672C264.17 136.879 265.319 135.824 266.221 134.572C266.414 134.3 266.601 134.02 266.773 133.733C268.117 131.388 268.63 128.658 268.229 125.985Z" fill="#FBDE0B"/>
<path d="M250.034 106.575C249.375 106.895 248.802 107.367 248.363 107.952C247.985 108.443 247.709 109.005 247.551 109.604C247.392 110.203 247.353 110.828 247.437 111.442L250.701 135.482C250.835 136.462 251.274 137.375 251.957 138.092C252.639 138.808 253.529 139.292 254.502 139.475L250.034 106.575Z" fill="white"/>
<path d="M268.229 125.985L266.816 115.549C266.467 112.914 265.197 110.486 263.23 108.697L266.479 132.615C266.528 132.999 266.626 133.375 266.773 133.734C268.117 131.388 268.63 128.658 268.229 125.985Z" fill="#3F3D56"/>
<path d="M257.062 133.505C258.044 133.372 258.537 131.038 258.164 128.292C257.791 125.546 256.694 123.428 255.713 123.561C254.731 123.694 254.238 126.028 254.611 128.774C254.983 131.52 256.081 133.638 257.062 133.505Z" fill="#3F3D56"/>
<path d="M254.911 120.603C255.892 120.47 256.385 118.136 256.013 115.39C255.64 112.644 254.542 110.526 253.561 110.659C252.58 110.792 252.086 113.126 252.459 115.872C252.832 118.618 253.93 120.736 254.911 120.603Z" fill="#3F3D56"/>
<path d="M268.537 125.62C269.519 125.487 270.012 123.153 269.639 120.408C269.267 117.662 268.169 115.544 267.188 115.677C266.206 115.81 265.713 118.143 266.086 120.889C266.459 123.635 267.556 125.753 268.537 125.62Z" fill="#3F3D56"/>
<path d="M204.772 79.1376C200.835 79.1261 196.906 79.5079 193.045 80.2772C188.699 81.1445 184.188 82.1838 179.756 83.5385C172.835 83.2016 167.743 81.4097 166.717 78.6502C174.786 73.9912 184.633 70.988 195.914 69.5258C200.609 68.9016 205.355 68.7575 210.079 69.0957C210.579 69.3887 211.011 69.7842 211.347 70.2561C211.684 70.728 211.916 71.2657 212.03 71.8338C212.367 74.3281 209.519 76.9801 204.772 79.1376Z" fill="#3F3D56"/>
<path d="M158.986 148.872L153.464 125.928C153.267 125.1 152.829 124.349 152.207 123.769C151.584 123.189 150.804 122.805 149.964 122.667C149.726 122.63 149.487 122.611 149.246 122.609C148.908 122.611 148.571 122.651 148.242 122.731L146.105 123.247C143.353 123.912 140.978 125.641 139.5 128.055C138.023 130.468 137.563 133.369 138.223 136.12L140.698 146.413C141.262 148.836 142.608 151.007 144.527 152.592C144.838 152.843 145.164 153.075 145.503 153.287C146.705 154.04 148.046 154.545 149.446 154.771C150.847 154.998 152.279 154.941 153.657 154.606L155.787 154.09C156.351 153.958 156.88 153.712 157.344 153.366C158.032 152.864 158.556 152.169 158.849 151.368C159.141 150.568 159.189 149.699 158.986 148.872Z" fill="#FBDE0B"/>
<path d="M147.409 144.603C148.372 144.371 148.626 141.999 147.977 139.305C147.329 136.611 146.022 134.615 145.06 134.846C144.097 135.078 143.842 137.45 144.491 140.144C145.14 142.838 146.446 144.834 147.409 144.603Z" fill="#3F3D56"/>
<path d="M140.237 146.753C141.2 146.521 141.454 144.15 140.805 141.456C140.157 138.762 138.85 136.765 137.888 136.997C136.925 137.228 136.67 139.6 137.319 142.294C137.968 144.988 139.274 146.984 140.237 146.753Z" fill="#3F3D56"/>
<path d="M159.337 148.786L153.815 125.842C153.6 124.946 153.125 124.134 152.45 123.507C151.775 122.879 150.93 122.465 150.021 122.315L157.559 153.652C158.303 153.108 158.869 152.354 159.186 151.488C159.502 150.622 159.555 149.682 159.337 148.786Z" fill="white"/>
<path d="M139.471 131.576C139.319 130.938 139.033 130.34 138.632 129.82C137.856 131.829 137.713 134.028 138.223 136.12L140.697 146.413C141.262 148.836 142.608 151.007 144.527 152.592L139.471 131.576Z" fill="#3F3D56"/>
</g>
<defs>
<clipPath id="clip0_35_138">
<rect width="610" height="531" fill="white"/>
</clipPath>
</defs>
</svg>
